<svg width="20" height="21" viewBox="0 0 20 21" fill="none" xmlns="http://www.w3.org/2000/svg">
<path d="M9.92966 20.2668C11.1249 20.2668 19.4958 15.5961 19.4958 5.08678C18.8793 5.08685 13.6328 3.91912 9.92966 0.416016C6.22651 3.91909 0.979352 5.08685 0.362305 5.08678C0.362305 15.5961 8.7344 20.2668 9.92966 20.2668Z" fill="#63C454"/>
<path fill-rule="evenodd" clip-rule="evenodd" d="M15.2608 7.34801C15.5435 7.65076 15.5273 8.12536 15.2245 8.40805L9.90965 13.3708C9.62147 13.6398 9.17413 13.6398 8.88594 13.3708L6.2285 10.8894C5.92575 10.6067 5.90949 10.1321 6.19218 9.82936C6.47487 9.52661 6.94947 9.51035 7.25222 9.79304L9.3978 11.7965L14.2008 7.31169C14.5036 7.02899 14.9782 7.04526 15.2608 7.34801Z" fill="white"/>
</svg>
