<svg width="35" height="34" viewBox="0 0 35 34" fill="none" xmlns="http://www.w3.org/2000/svg">
<rect width="35" height="34" rx="17" fill="#2188E7"/>
<path fill-rule="evenodd" clip-rule="evenodd" d="M11.4375 18.7881C11.5535 18.7881 11.6648 18.8342 11.7469 18.9162C11.8289 18.9983 11.875 19.1096 11.875 19.2256V21.4132C11.875 21.6452 11.9672 21.8678 12.1313 22.0319C12.2954 22.196 12.518 22.2882 12.75 22.2882H23.2503C23.4823 22.2882 23.7049 22.196 23.869 22.0319C24.0331 21.8678 24.1253 21.6452 24.1253 21.4132V19.2256C24.1253 19.1096 24.1714 18.9983 24.2534 18.9162C24.3355 18.8342 24.4468 18.7881 24.5628 18.7881C24.6788 18.7881 24.7901 18.8342 24.8722 18.9162C24.9542 18.9983 25.0003 19.1096 25.0003 19.2256V21.4132C25.0003 21.8773 24.8159 22.3224 24.4877 22.6506C24.1595 22.9788 23.7144 23.1632 23.2503 23.1632H12.75C12.2859 23.1632 11.8408 22.9788 11.5126 22.6506C11.1844 22.3224 11 21.8773 11 21.4132V19.2256C11 19.1096 11.0461 18.9983 11.1281 18.9162C11.2102 18.8342 11.3215 18.7881 11.4375 18.7881Z" fill="white"/>
<path fill-rule="evenodd" clip-rule="evenodd" d="M17.6904 20.4975C17.731 20.5383 17.7793 20.5706 17.8324 20.5927C17.8856 20.6147 17.9426 20.6261 18.0001 20.6261C18.0577 20.6261 18.1147 20.6147 18.1678 20.5927C18.221 20.5706 18.2692 20.5383 18.3099 20.4975L20.9349 17.8725C21.0171 17.7903 21.0632 17.6789 21.0632 17.5627C21.0632 17.4465 21.0171 17.3351 20.9349 17.2529C20.8528 17.1708 20.7414 17.1246 20.6252 17.1246C20.509 17.1246 20.3976 17.1708 20.3154 17.2529L18.4376 19.1316V11.4375C18.4376 11.3215 18.3915 11.2102 18.3095 11.1281C18.2274 11.0461 18.1162 11 18.0001 11C17.8841 11 17.7728 11.0461 17.6908 11.1281C17.6087 11.2102 17.5626 11.3215 17.5626 11.4375V19.1316L15.6848 17.2529C15.6027 17.1708 15.4913 17.1246 15.3751 17.1246C15.2589 17.1246 15.1475 17.1708 15.0653 17.2529C14.9832 17.3351 14.937 17.4465 14.937 17.5627C14.937 17.6789 14.9832 17.7903 15.0653 17.8725L17.6904 20.4975Z" fill="white"/>
</svg>
