<svg width="338" height="225" viewBox="0 0 338 225" fill="none" xmlns="http://www.w3.org/2000/svg">
<path d="M300.572 67.6212L296.259 88.4787L293.483 85.7742L288.76 89.1402L285.15 84.6627L277.056 90.5397L270.139 78.9882L262.423 83.5017L259.363 79.2897L249.566 84.8022L246.618 78.4977L253.486 45.2832L290.306 52.8747L300.572 67.6212Z" fill="#EBEBEB"/>
<path d="M290.306 52.875L300.572 67.6215L287.8 64.989L290.306 52.875Z" fill="#DBDBDB"/>
<path d="M295.34 92.6454L289.017 123.245L239.421 113.021L245.699 82.6689L248.646 88.9689L258.448 83.4564L261.504 87.6684L269.224 83.1594L276.137 94.7109L284.235 88.8339L287.841 93.3069L292.568 89.9454L295.34 92.6454Z" fill="#EBEBEB"/>
<path d="M224.355 89.0591L173.813 92.1821L169.798 27.4001L207.329 25.0781L221.106 36.6206L224.355 89.0591Z" fill="#EBEBEB"/>
<path d="M207.329 25.0781L221.106 36.6206L208.091 37.4261L207.329 25.0781Z" fill="#DBDBDB"/>
<path d="M193.336 68.6694L193.138 67.2069C192.628 64.1784 193.458 60.7899 196.094 57.2484C198.474 54.0984 199.762 51.8484 199.618 49.2924C199.456 46.4124 197.541 44.5944 193.976 44.7384C191.939 44.844 189.982 45.566 188.365 46.8084L186.81 43.3299C188.613 41.8674 191.768 40.7874 194.765 40.6299C201.268 40.2699 204.431 44.1129 204.679 48.4014C204.896 52.2399 202.904 55.1244 200.371 58.4949C198.045 61.5684 197.284 64.1019 197.613 66.9684L197.752 68.4354L193.336 68.6694ZM192.534 76.6389C192.417 74.5509 193.746 73.0029 195.724 72.8949C197.703 72.7869 199.145 74.1729 199.262 76.2654C199.37 78.2409 198.158 79.8339 196.067 79.9509C194.071 80.0634 192.628 78.6144 192.516 76.6389H192.534Z" fill="#DBDBDB"/>
<path d="M66.915 57.6491L61.8315 55.3496L61.1239 56.9021C61.0194 57.124 60.8564 57.3132 60.6524 57.4496C60.4483 57.586 60.2109 57.6643 59.9657 57.6761C59.6863 57.6852 59.4079 57.7123 59.132 57.7571C58.8898 57.793 58.6424 57.7626 58.4162 57.6691C58.19 57.5755 57.9934 57.4224 57.8476 57.2261L56.8516 55.8356L52.3134 59.0846L53.3094 60.4751C53.4479 60.6758 53.5294 60.9102 53.5453 61.1534C53.5611 61.3967 53.5108 61.6397 53.3995 61.8566C53.271 62.1041 53.1552 62.3579 53.0525 62.6171C52.9632 62.8457 52.8132 63.0456 52.6187 63.1955C52.4242 63.3453 52.1924 63.4394 51.9483 63.4676L50.2493 63.6341L50.7946 69.1826L52.5027 69.0116C52.7476 68.9921 52.9933 69.0395 53.2132 69.149C53.4332 69.2584 53.6191 69.4256 53.751 69.6326C53.8231 69.7496 53.8997 69.8621 53.9808 69.9746C54.062 70.0871 54.1431 70.1951 54.2287 70.3031C54.3842 70.492 54.4843 70.7203 54.5177 70.9626C54.5511 71.2049 54.5166 71.4517 54.418 71.6756L53.7059 73.2416L58.794 75.5456L59.5015 73.9841C59.607 73.7624 59.771 73.5736 59.9758 73.4381C60.1807 73.3025 60.4187 73.2252 60.6642 73.2146C60.9405 73.2032 61.2158 73.1762 61.489 73.1336C61.7311 73.0977 61.9785 73.1281 62.2047 73.2216C62.431 73.3152 62.6275 73.4683 62.7734 73.6646L63.7693 75.0551L68.3121 71.8061L67.3161 70.4156C67.1733 70.2167 67.0892 69.9819 67.0732 69.7377C67.0573 69.4935 67.1102 69.2498 67.2259 69.0341C67.3515 68.788 67.4643 68.5357 67.5639 68.2781C67.6506 68.0479 67.7999 67.8463 67.9949 67.6961C68.1899 67.5458 68.4231 67.4529 68.6681 67.4276L70.3761 67.2566L69.8263 61.7081L68.1183 61.8746C67.8748 61.896 67.6303 61.8497 67.4115 61.7409C67.1928 61.6321 67.0085 61.465 66.8789 61.2581C66.8023 61.1411 66.7257 61.0286 66.6446 60.9161C66.5635 60.8036 66.4823 60.6911 66.3967 60.5876C66.2422 60.3963 66.143 60.1666 66.1096 59.9231C66.0763 59.6797 66.1101 59.4318 66.2074 59.2061L66.915 57.6491ZM64.0307 62.7836C64.5577 63.5179 64.8548 64.3919 64.8844 65.2948C64.914 66.1977 64.6747 67.0892 64.1969 67.8563C63.719 68.6235 63.0241 69.2319 62.1999 69.6047C61.3758 69.9774 60.4594 70.0978 59.5668 69.9505C58.6741 69.8032 57.8452 69.3948 57.185 68.7771C56.5248 68.1595 56.0628 67.3601 55.8575 66.4802C55.6523 65.6004 55.713 64.6795 56.0319 63.834C56.3508 62.9886 56.9137 62.2566 57.6493 61.7306C58.6354 61.0254 59.8617 60.7402 61.0584 60.9377C62.2551 61.1352 63.3242 61.7991 64.0307 62.7836Z" fill="#EBEBEB"/>
<path d="M296.71 131.27L293.321 133.223L293.92 134.258C294.01 134.406 294.054 134.577 294.049 134.75C294.043 134.924 293.988 135.092 293.889 135.234C293.785 135.396 293.686 135.563 293.596 135.738C293.522 135.893 293.405 136.024 293.259 136.115C293.112 136.206 292.943 136.253 292.771 136.251H291.581V140.162H292.78C292.952 140.159 293.121 140.207 293.268 140.298C293.414 140.388 293.531 140.519 293.605 140.675C293.695 140.85 293.794 141.017 293.898 141.179C293.997 141.321 294.052 141.489 294.058 141.662C294.063 141.835 294.019 142.007 293.929 142.155L293.33 143.19L296.719 145.143L297.323 144.104C297.41 143.956 297.537 143.836 297.689 143.756C297.841 143.677 298.012 143.641 298.184 143.654H298.76C298.932 143.642 299.103 143.678 299.254 143.757C299.406 143.837 299.533 143.956 299.621 144.104L300.225 145.148L303.61 143.195L303.01 142.155C302.925 142.006 302.883 141.836 302.89 141.664C302.896 141.492 302.95 141.326 303.046 141.183C303.15 141.021 303.249 140.85 303.339 140.679C303.413 140.524 303.53 140.393 303.676 140.302C303.823 140.211 303.992 140.164 304.164 140.166H305.363V136.256H304.155C303.983 136.258 303.814 136.21 303.667 136.12C303.521 136.029 303.404 135.898 303.33 135.743C303.24 135.572 303.141 135.401 303.037 135.239C302.941 135.096 302.887 134.929 302.881 134.758C302.874 134.586 302.916 134.416 303.001 134.267L303.601 133.227L300.216 131.274L299.612 132.3C299.525 132.447 299.398 132.568 299.246 132.647C299.094 132.727 298.923 132.762 298.751 132.75H298.463H298.175C298.003 132.762 297.831 132.726 297.679 132.646C297.526 132.567 297.398 132.447 297.309 132.3L296.71 131.27ZM298.463 135.005C299.098 135.004 299.719 135.191 300.247 135.543C300.776 135.894 301.188 136.395 301.431 136.98C301.675 137.566 301.738 138.211 301.615 138.832C301.491 139.454 301.185 140.026 300.736 140.474C300.287 140.922 299.715 141.228 299.092 141.351C298.47 141.475 297.824 141.411 297.237 141.168C296.651 140.925 296.15 140.513 295.798 139.986C295.445 139.458 295.258 138.838 295.259 138.204C295.258 137.783 295.341 137.367 295.501 136.978C295.662 136.59 295.898 136.236 296.196 135.939C296.493 135.641 296.847 135.405 297.236 135.244C297.625 135.083 298.042 135 298.463 135V135.005Z" fill="#EBEBEB"/>
<path d="M77.1992 41.0213L74.0941 43.3973L74.8107 44.3468C74.9176 44.482 74.9833 44.6451 75.0001 44.8166C75.0168 44.9882 74.984 45.1609 74.9053 45.3142C74.8191 45.4894 74.7438 45.6698 74.68 45.8543C74.6244 46.0168 74.5246 46.1606 74.3916 46.2695C74.2586 46.3784 74.0979 46.4481 73.9274 46.4707L72.7376 46.6238L73.2424 50.4983L74.4321 50.3453C74.6053 50.3211 74.7818 50.3464 74.9413 50.418C75.1007 50.4897 75.2367 50.6048 75.3335 50.7503C75.442 50.9068 75.5593 51.057 75.685 51.2003C75.8011 51.3277 75.8781 51.4858 75.9068 51.6557C75.9356 51.8257 75.9149 52.0002 75.8472 52.1588L75.3965 53.2658L79.0019 54.7643L79.4525 53.6573C79.5196 53.4984 79.6299 53.3616 79.7709 53.2622C79.9119 53.1627 80.0779 53.1047 80.2502 53.0948L80.5387 53.0633L80.8226 53.0183C80.9894 52.9869 81.1616 53.0017 81.3205 53.0612C81.4794 53.1207 81.6189 53.2226 81.7239 53.3558L82.4585 54.3143L85.5636 51.9383L84.838 50.9888C84.7332 50.8516 84.6688 50.6879 84.6521 50.5162C84.6354 50.3445 84.667 50.1715 84.7434 50.0168C84.8288 49.8428 84.904 49.664 84.9687 49.4813C85.0242 49.3187 85.1241 49.1749 85.2571 49.066C85.3901 48.9571 85.5508 48.8874 85.7213 48.8647L86.9111 48.7118L86.4063 44.8373L85.2166 44.9903C85.0438 45.0148 84.8676 44.9903 84.7082 44.9194C84.5488 44.8486 84.4126 44.7343 84.3152 44.5897C84.2026 44.4277 84.0854 44.2747 83.9592 44.1397C83.8542 44.0095 83.7863 43.8535 83.7625 43.688C83.7387 43.5225 83.76 43.3537 83.824 43.1993L84.2747 42.0923L80.6693 40.5938L80.2187 41.7007C80.1507 41.8589 80.0402 41.9953 79.8994 42.0945C79.7586 42.1938 79.593 42.2522 79.421 42.2632L79.1326 42.2903L78.8667 42.2993C78.6999 42.3306 78.5277 42.3158 78.3688 42.2563C78.2099 42.1968 78.0703 42.0949 77.9653 41.9618L77.1992 41.0213ZM79.421 44.4998C80.0488 44.4192 80.6864 44.526 81.2534 44.8069C81.8204 45.0877 82.2914 45.5299 82.607 46.0778C82.9226 46.6256 83.0687 47.2545 83.0267 47.8851C82.9848 48.5157 82.7568 49.1198 82.3714 49.6211C81.9861 50.1225 81.4606 50.4987 80.8614 50.7022C80.2622 50.9057 79.616 50.9275 79.0044 50.7647C78.3928 50.602 77.8432 50.262 77.4249 49.7878C77.0066 49.3135 76.7383 48.7261 76.6539 48.0998C76.5976 47.6818 76.6246 47.2568 76.7333 46.8493C76.8421 46.4417 77.0305 46.0597 77.2877 45.7251C77.5448 45.3906 77.8657 45.1101 78.2318 44.8998C78.5979 44.6895 79.0021 44.5535 79.421 44.4998Z" fill="#EBEBEB"/>
<path d="M53.9989 142.551C54.1682 138.201 54.108 133.845 53.8186 129.501C53.1738 120.531 51.8038 111.628 49.7221 102.879C48.5774 97.9559 47.1713 93.1139 45.7021 88.2764C45.657 88.1279 45.4227 88.1684 45.4633 88.3214C50.0015 105.376 53.724 122.971 53.4671 140.701C53.395 145.651 52.8181 150.534 52.3494 155.466C52.3494 155.596 52.5522 155.65 52.5838 155.515C53.5167 151.281 53.8231 146.862 53.9989 142.551Z" fill="#EBEBEB"/>
<path d="M45.4633 88.3076C45.4633 88.3076 38.5951 105.723 40.1319 109.8C41.6687 113.877 44.8413 114.75 44.8413 114.75C44.8413 114.75 40.6366 120.744 43.575 126.364C46.5133 131.985 53.039 131.719 53.4896 138.091C53.4761 138.123 53.8366 111.478 45.4633 88.3076Z" fill="#EBEBEB"/>
<path d="M52.728 127.12C52.7391 127.091 52.7391 127.059 52.728 127.03C51.8266 115.141 49.5923 103.39 46.0672 91.9979C46.0672 91.9664 45.9996 91.9754 46.0086 91.9979C47.3696 97.0979 48.5714 102.219 49.6139 107.361C48.6906 106.487 47.5625 105.859 46.3331 105.534C46.3331 105.534 46.297 105.561 46.3331 105.57C47.6247 106.043 48.7859 106.814 49.7221 107.82C49.9204 108.832 50.1187 109.84 50.3034 110.853C48.7667 109.138 46.6395 108.288 44.5079 107.478C44.503 107.48 44.4989 107.483 44.4961 107.488C44.4932 107.492 44.4916 107.497 44.4916 107.503C44.4916 107.508 44.4932 107.513 44.4961 107.517C44.4989 107.522 44.503 107.525 44.5079 107.527C46.7297 108.427 48.9379 109.588 50.4432 111.501C50.9659 114.39 51.4256 117.289 51.8222 120.199C50.7126 119.039 49.2895 118.224 47.7256 117.855C47.6761 117.855 47.649 117.913 47.6986 117.927C49.3051 118.399 50.7394 119.328 51.8267 120.6H51.8537C51.9889 121.62 52.1181 122.644 52.2413 123.673C51.3829 122.948 50.4137 122.365 49.3706 121.945C49.3435 121.945 49.3255 121.977 49.3706 121.986C50.4351 122.446 51.41 123.091 52.2503 123.889C52.2503 123.889 52.2729 123.889 52.2864 123.889C52.399 124.866 52.5117 125.842 52.6109 126.819C51.0633 124.951 49.055 123.518 46.7837 122.661C46.7742 122.661 46.765 122.665 46.7582 122.671C46.7515 122.678 46.7477 122.687 46.7477 122.697C46.7477 122.706 46.7515 122.716 46.7582 122.722C46.765 122.729 46.7742 122.733 46.7837 122.733C49.0264 123.72 50.9964 125.235 52.5252 127.147C52.5421 127.168 52.5648 127.184 52.5905 127.192C52.6161 127.2 52.6437 127.2 52.6694 127.192C52.8182 128.691 52.9534 130.189 53.0615 131.692C53.0615 131.715 53.0976 131.715 53.0976 131.692C52.9804 130.183 52.8572 128.659 52.728 127.12Z" fill="white"/>
<path d="M47.2073 103.819C45.9635 103.046 44.5426 102.603 43.0792 102.532C43.0721 102.532 43.0652 102.535 43.0601 102.54C43.055 102.545 43.0522 102.552 43.0522 102.559C43.0522 102.566 43.055 102.573 43.0601 102.578C43.0652 102.583 43.0721 102.586 43.0792 102.586C44.494 102.854 45.867 103.308 47.1623 103.936C47.2164 103.95 47.2569 103.855 47.2073 103.819Z" fill="white"/>
<path d="M48.0411 122.256C47.0851 121.708 46.0324 121.349 44.9405 121.198C44.9044 121.198 44.8999 121.248 44.9405 121.257C46.0068 121.47 47.0381 121.831 48.005 122.328C48.0456 122.35 48.0816 122.278 48.0411 122.256Z" fill="white"/>
<path d="M72.0616 110.101C69.1561 112.107 66.4877 114.435 64.1074 117.04C61.6526 119.799 59.7591 123.009 58.5326 126.49C55.9223 133.744 54.5187 141.374 54.3775 149.08C54.2899 153.348 54.6998 157.611 55.5988 161.784C55.6061 161.814 55.6248 161.841 55.651 161.858C55.6772 161.874 55.709 161.881 55.7397 161.875C55.7704 161.869 55.7976 161.852 55.8159 161.826C55.8341 161.801 55.8419 161.77 55.8376 161.739C54.719 154.375 54.7615 146.882 55.9638 139.531C57.1446 132.331 58.9968 124.492 63.5846 118.638C66.0813 115.447 69.1954 112.941 72.2735 110.349C72.4357 110.205 72.2284 109.984 72.0616 110.101Z" fill="#EBEBEB"/>
<path d="M55.387 143.887C57.0408 141.216 58.9844 138.735 61.1825 136.489C64.6211 133.056 67.5144 130.617 67.9651 128.349C68.4157 126.081 64.522 124.407 64.522 124.407C64.522 124.407 69.2765 125.262 70.5789 123.268C71.8814 121.275 72.5078 109.728 72.5078 109.728C72.5078 109.728 63.855 115.897 59.8215 124.546C55.7881 133.195 55.387 143.887 55.387 143.887Z" fill="#EBEBEB"/>
<path d="M69.4026 120.559C68.8329 120.474 68.2553 120.455 67.6811 120.501C67.6135 120.501 67.618 120.618 67.6811 120.622C68.2489 120.622 68.8213 120.595 69.3891 120.622C69.3956 120.62 69.4015 120.617 69.4062 120.612C69.4108 120.607 69.414 120.601 69.4154 120.595C69.4168 120.588 69.4164 120.581 69.4141 120.575C69.4119 120.569 69.4079 120.563 69.4026 120.559Z" fill="white"/>
<path d="M63.188 131.76C62.2743 131.778 61.371 131.958 60.52 132.291C60.52 132.291 60.52 132.336 60.52 132.331C61.4214 132.12 62.2911 132.034 63.1835 131.881C63.1951 131.876 63.2051 131.868 63.2122 131.857C63.2194 131.847 63.2234 131.835 63.2239 131.822C63.2244 131.809 63.2213 131.797 63.2149 131.786C63.2086 131.775 63.1992 131.766 63.188 131.76Z" fill="white"/>
<path d="M61.3222 127.89C60.9429 127.887 60.5641 127.92 60.191 127.989C60.1841 127.991 60.1782 127.996 60.174 128.002C60.1698 128.008 60.1675 128.015 60.1675 128.023C60.1675 128.03 60.1698 128.037 60.174 128.043C60.1782 128.049 60.1841 128.054 60.191 128.056C60.5688 128.078 60.9478 128.062 61.3222 128.007C61.3378 128.007 61.3527 128.001 61.3636 127.99C61.3746 127.979 61.3808 127.964 61.3808 127.948C61.3808 127.933 61.3746 127.918 61.3636 127.907C61.3527 127.896 61.3378 127.89 61.3222 127.89Z" fill="white"/>
<path d="M30.0189 122.35C32.8352 123.303 35.5339 124.573 38.0633 126.134C40.6877 127.8 42.9636 129.958 44.7647 132.488C48.5543 137.756 51.4559 143.607 53.3544 149.809C54.4133 153.243 55.0666 156.789 55.3013 160.375C55.2964 160.398 55.2836 160.419 55.2651 160.434C55.2467 160.449 55.2236 160.457 55.1999 160.457C55.1761 160.457 55.1531 160.449 55.1346 160.434C55.1162 160.419 55.1034 160.398 55.0985 160.375C54.303 154.158 52.5359 148.104 49.8617 142.433C47.2344 136.876 43.922 130.963 38.8565 127.282C36.0984 125.279 32.9978 123.965 29.9062 122.579C29.744 122.525 29.8566 122.296 30.0189 122.35Z" fill="#EBEBEB"/>
<path d="M51.3354 145.844C49.3775 144.065 47.23 142.507 44.9315 141.196C41.3532 139.211 38.4464 137.906 37.5586 136.174C36.6707 134.441 39.4333 132.191 39.4333 132.191C39.4333 132.191 35.7829 133.991 34.2687 132.664C32.7545 131.336 29.5728 122.156 29.5728 122.156C29.5728 122.156 38.0047 125.149 43.264 131.219C48.5233 137.29 51.3354 145.844 51.3354 145.844Z" fill="#EBEBEB"/>
<path d="M44.3366 137.394C43.5076 137.336 42.6752 137.438 41.8849 137.695C41.8849 137.695 41.8849 137.736 41.8849 137.731C42.6911 137.593 43.5056 137.509 44.3231 137.479C44.3816 137.479 44.3952 137.398 44.3366 137.394Z" fill="white"/>
<path d="M36.9817 127.764C36.6036 127.733 36.2229 127.754 35.8505 127.827C35.81 127.827 35.8235 127.899 35.8505 127.894C36.2246 127.854 36.5896 127.867 36.9592 127.858C36.9707 127.859 36.982 127.855 36.9911 127.848C37.0003 127.841 37.0067 127.831 37.0094 127.82C37.012 127.809 37.0107 127.797 37.0057 127.787C37.0006 127.777 36.9922 127.768 36.9817 127.764Z" fill="white"/>
<path d="M62.2101 171.981H43.1784L45.8914 152.131L46.5854 147.042H58.803L59.497 152.131L62.2101 171.981Z" fill="#DBDBDB"/>
<path d="M59.4971 152.131H45.8914L46.5854 147.042H58.803L59.4971 152.131Z" fill="#C7C7C7"/>
<path d="M60.5471 145.277H44.8369V149.588H60.5471V145.277Z" fill="#DBDBDB"/>
<path d="M31.078 171.981L65.3332 171.873L99.5883 171.832L168.099 171.756L236.609 171.832L270.864 171.873L305.119 171.981L270.864 172.093L236.609 172.129L168.099 172.206L99.5883 172.129L65.3332 172.089L31.078 171.981Z" fill="#3F3F3F"/>
<path d="M169 205.519C240.368 205.519 298.224 199.189 298.224 191.38C298.224 183.571 240.368 177.241 169 177.241C97.6314 177.241 39.7758 183.571 39.7758 191.38C39.7758 199.189 97.6314 205.519 169 205.519Z" fill="#EBEBEB"/>
<path d="M138.918 189.04C137.868 189.396 107.759 189.49 106.605 188.779C106.155 188.509 105.898 184.131 105.704 178.83C105.663 177.687 105.632 176.503 105.605 175.306L103.203 159.268L123.334 159.138L125.231 175.18L125.155 178.708C125.155 178.708 136.701 183.816 137.882 184.743C139.062 185.67 139.968 188.685 138.918 189.04Z" fill="#EB9481"/>
<path d="M138.918 189.041C137.868 189.396 107.759 189.491 106.605 188.78C106.073 188.447 105.785 182.052 105.623 175.307L125.209 175.181L125.132 178.709C125.132 178.709 136.678 183.816 137.859 184.743C139.04 185.67 139.968 188.685 138.918 189.041Z" fill="white"/>
<path d="M138.918 189.04C137.868 189.395 107.759 189.49 106.605 188.779C106.155 188.509 105.898 184.13 105.704 178.83L125.114 178.708C125.114 178.708 136.66 183.815 137.841 184.742C139.022 185.669 139.968 188.684 138.918 189.04Z" fill="#A6A6A6"/>
<path d="M138.481 187.839C133.433 187.731 113.063 187.781 108.065 188.06C108.025 188.06 108.025 188.087 108.065 188.091C113.068 188.303 133.438 188.091 138.481 187.92C138.589 187.916 138.589 187.839 138.481 187.839Z" fill="#3F3F3F"/>
<path d="M135.917 183.667C135.355 183.654 134.798 183.758 134.279 183.972C133.76 184.186 133.291 184.505 132.902 184.909C132.193 185.63 131.792 186.598 131.784 187.609C131.784 187.641 131.838 187.641 131.843 187.609C132.01 186.613 132.496 185.699 133.227 185.001C133.958 184.304 134.895 183.861 135.899 183.739C135.908 183.741 135.918 183.74 135.927 183.735C135.935 183.73 135.941 183.722 135.944 183.712C135.946 183.702 135.945 183.692 135.939 183.684C135.934 183.676 135.926 183.669 135.917 183.667Z" fill="#3F3F3F"/>
<path d="M127.088 179.204C125.069 179.181 122.73 179.901 121.477 181.557C121.432 181.62 121.522 181.688 121.581 181.656C123.345 180.726 125.203 179.987 127.124 179.451C127.154 179.443 127.179 179.424 127.196 179.399C127.213 179.373 127.22 179.342 127.216 179.311C127.211 179.281 127.196 179.253 127.172 179.233C127.149 179.214 127.119 179.203 127.088 179.204Z" fill="#3F3F3F"/>
<path d="M128.656 179.802C126.633 179.802 124.294 180.504 123.046 182.155C122.996 182.223 123.086 182.29 123.149 182.259C124.911 181.326 126.768 180.585 128.688 180.049C128.717 180.041 128.743 180.023 128.76 179.998C128.776 179.972 128.784 179.942 128.78 179.912C128.776 179.882 128.761 179.854 128.739 179.834C128.716 179.814 128.687 179.802 128.656 179.802Z" fill="#3F3F3F"/>
<path d="M130.216 180.404C128.197 180.404 125.858 181.102 124.605 182.758C124.56 182.821 124.65 182.888 124.708 182.857C126.472 181.927 128.331 181.188 130.252 180.652C130.281 180.644 130.307 180.625 130.324 180.599C130.341 180.574 130.348 180.543 130.343 180.512C130.339 180.482 130.323 180.454 130.3 180.434C130.276 180.414 130.246 180.404 130.216 180.404Z" fill="#3F3F3F"/>
<path d="M131.779 181.007C129.756 180.985 127.417 181.705 126.169 183.361C126.119 183.424 126.214 183.491 126.272 183.46C128.036 182.529 129.894 181.79 131.816 181.255C131.845 181.247 131.871 181.228 131.888 181.202C131.905 181.177 131.912 181.146 131.907 181.115C131.903 181.085 131.887 181.057 131.864 181.037C131.84 181.017 131.81 181.007 131.779 181.007Z" fill="#3F3F3F"/>
<path d="M109.336 183.267C107.083 183.267 107.083 186.799 109.336 186.786C111.59 186.772 111.608 183.253 109.336 183.267Z" fill="#3F3F3F"/>
<path d="M129.256 173.812C128.233 172.966 126.944 173.812 126.317 174.68C125.275 176.215 124.653 177.997 124.515 179.846C124.515 179.887 124.546 179.905 124.578 179.905C124.586 179.943 124.603 179.978 124.628 180.009C124.652 180.039 124.684 180.063 124.72 180.078C124.755 180.093 124.794 180.1 124.833 180.097C124.872 180.095 124.91 180.083 124.943 180.062C126.376 179.068 128.034 178.177 129.121 176.768C129.738 175.949 130.243 174.599 129.256 173.812ZM126.795 178.105C126.101 178.613 125.385 179.086 124.709 179.621C125.069 178.613 125.38 177.596 125.84 176.624C126.052 176.158 126.296 175.707 126.57 175.274C127.02 174.604 128.985 172.912 129.193 175.103C129.31 176.305 127.62 177.502 126.795 178.105Z" fill="#3F3F3F"/>
<path d="M119.485 180.612C121.243 180.873 123.059 180.369 124.785 180.094C124.823 180.085 124.857 180.066 124.886 180.041C124.915 180.015 124.938 179.983 124.953 179.947C124.967 179.911 124.973 179.873 124.97 179.834C124.966 179.796 124.954 179.758 124.934 179.725C124.94 179.72 124.946 179.714 124.949 179.706C124.953 179.699 124.955 179.691 124.955 179.683C124.955 179.674 124.953 179.666 124.949 179.659C124.946 179.651 124.94 179.645 124.934 179.64C123.547 178.405 121.859 177.556 120.04 177.178C118.976 176.976 117.471 177.268 117.336 178.587C117.173 179.829 118.458 180.45 119.485 180.612ZM118.259 179.469C116.907 177.741 119.49 177.592 120.265 177.772C120.768 177.898 121.262 178.057 121.743 178.249C122.729 178.657 123.693 179.116 124.632 179.622C123.776 179.707 122.933 179.86 122.081 179.977C121.063 180.112 119.017 180.418 118.259 179.469Z" fill="#3F3F3F"/>
<path d="M73.6029 85.1396C73.6029 85.1396 96.979 124.848 97.6054 127.638C98.5653 131.922 103.653 174.226 103.653 174.226L127.989 173.776C127.989 173.776 123.798 136.476 119.828 124.186C116.971 115.335 96.339 85.9766 96.339 85.9766L73.6029 85.1396Z" fill="#37474F"/>
<path d="M125.777 170.068C122.284 170.041 109.904 169.902 105.253 170.334C105.217 170.334 105.222 170.397 105.253 170.401C106.853 170.631 122.279 170.275 125.772 170.163C125.779 170.165 125.787 170.166 125.795 170.165C125.803 170.164 125.81 170.162 125.816 170.157C125.823 170.153 125.828 170.147 125.832 170.141C125.836 170.134 125.838 170.126 125.838 170.119C125.839 170.111 125.837 170.103 125.834 170.096C125.831 170.089 125.826 170.083 125.82 170.078C125.814 170.073 125.807 170.07 125.8 170.068C125.792 170.066 125.784 170.066 125.777 170.068Z" fill="#3F3F3F"/>
<path d="M77.5913 88.7847C79.1236 91.1832 80.746 93.5322 82.3053 95.9127C83.8646 98.2932 85.4329 100.674 86.9787 103.05C90.0612 107.85 93.0657 112.681 95.992 117.544C97.4202 119.798 98.6419 122.176 99.6424 124.65C100.556 127.123 101.242 129.675 101.693 132.273C102.171 134.878 102.486 137.511 102.779 140.143C103.08 142.942 103.393 145.743 103.721 148.545C104.361 154.278 105.002 160.011 105.645 165.744C105.722 166.446 105.799 167.148 105.871 167.854C105.871 167.958 105.695 167.976 105.681 167.854C104.965 162.162 104.37 156.447 103.721 150.754C103.396 147.913 103.073 145.074 102.752 142.236C102.45 139.594 102.162 136.948 101.752 134.325C101.375 131.735 100.803 129.178 100.039 126.675C99.1975 124.083 98.0699 121.593 96.677 119.25C93.8604 114.394 90.8769 109.624 87.8935 104.85C84.9101 100.075 81.8456 95.2602 78.6999 90.5442C78.3124 89.9637 77.9203 89.3832 77.5147 88.8117C77.4831 88.7802 77.5643 88.7397 77.5913 88.7847Z" fill="#3F3F3F"/>
<path d="M81.2642 191.38C80.1556 191.313 51.5202 179.73 50.7271 178.632C50.6917 178.567 50.6761 178.493 50.682 178.42C50.682 177.435 52.6695 173.997 54.3279 169.479C54.4316 169.191 55.1707 167.85 56.1937 166.045C59.0374 161.1 63.9947 152.581 63.9947 152.581L82.7109 160.006L73.7516 173.394L72.3591 176.634C72.3591 176.634 81.1426 185.701 81.8817 186.984C82.6208 188.266 82.3684 191.443 81.2642 191.38Z" fill="#EB9481"/>
<path d="M81.2642 191.38C80.1556 191.312 51.5202 179.729 50.7271 178.631C50.6917 178.567 50.6761 178.493 50.682 178.42C50.682 177.434 52.6695 173.996 54.3279 169.478C54.4316 169.19 55.1707 167.849 56.1937 166.045L73.7697 173.393L72.3771 176.633C72.3771 176.633 81.1606 185.701 81.8997 186.983C82.6388 188.266 82.3684 191.443 81.2642 191.38Z" fill="white"/>
<path d="M81.2642 191.38C80.1556 191.313 51.5202 179.73 50.727 178.632C50.4206 178.213 51.7005 174.312 54.3324 169.479L72.359 176.638C72.359 176.638 81.1425 185.697 81.8861 186.988C82.6297 188.28 82.3684 191.443 81.2642 191.38Z" fill="#A6A6A6"/>
<path d="M81.3093 190.102C76.672 188.113 57.771 180.526 53.0345 178.915C52.9939 178.915 52.9849 178.915 53.0345 178.942C57.5907 181.012 76.5503 188.446 81.2913 190.192C81.3814 190.215 81.4085 190.143 81.3093 190.102Z" fill="#3F3F3F"/>
<path d="M80.4981 185.274C79.9839 185.048 79.4284 184.932 78.8667 184.932C78.3051 184.932 77.7495 185.048 77.2353 185.274C76.3107 185.678 75.5779 186.423 75.1893 187.353C75.1893 187.38 75.2298 187.402 75.2434 187.375C75.7746 186.512 76.5717 185.845 77.515 185.472C78.4583 185.1 79.4971 185.043 80.4756 185.31C80.4832 185.308 80.4897 185.303 80.4938 185.296C80.498 185.289 80.4995 185.281 80.4981 185.274Z" fill="#3F3F3F"/>
<path d="M73.995 177.831C72.1337 177.052 69.6911 176.845 67.911 177.912C67.8434 177.952 67.911 178.047 67.9696 178.042C69.954 177.841 71.9542 177.852 73.9364 178.074C73.9669 178.077 73.9976 178.069 74.0227 178.052C74.0478 178.034 74.0656 178.008 74.0727 177.978C74.0799 177.948 74.076 177.917 74.0617 177.89C74.0474 177.863 74.0237 177.842 73.995 177.831Z" fill="#3F3F3F"/>
<path d="M75.2163 178.973C73.355 178.195 70.9124 177.988 69.1323 179.054C69.0647 179.095 69.1323 179.189 69.1909 179.185C71.1752 178.982 73.1757 178.992 75.1577 179.216C75.1882 179.22 75.2189 179.212 75.244 179.194C75.2691 179.177 75.2869 179.15 75.294 179.121C75.3012 179.091 75.2973 179.06 75.283 179.032C75.2687 179.005 75.245 178.984 75.2163 178.973Z" fill="#3F3F3F"/>
<path d="M76.4421 180.117C74.5763 179.339 72.1337 179.132 70.3581 180.198C70.286 180.238 70.3581 180.333 70.4122 180.329C72.3965 180.125 74.397 180.136 76.379 180.36C76.4101 180.365 76.4421 180.359 76.4686 180.341C76.495 180.324 76.5141 180.298 76.522 180.267C76.5299 180.237 76.5261 180.204 76.5113 180.177C76.4965 180.149 76.4718 180.128 76.4421 180.117Z" fill="#3F3F3F"/>
<path d="M77.6634 181.26C75.7977 180.482 73.3595 180.275 71.5794 181.337C71.5073 181.382 71.5794 181.476 71.6335 181.472C73.6178 181.268 75.6183 181.279 77.6003 181.503C77.6314 181.508 77.6634 181.502 77.6899 181.485C77.7163 181.467 77.7354 181.441 77.7433 181.411C77.7512 181.38 77.7474 181.348 77.7326 181.32C77.7178 181.292 77.6932 181.271 77.6634 181.26Z" fill="#3F3F3F"/>
<path d="M56.0089 174.946C53.9043 174.109 52.5973 177.381 54.7109 178.218C56.8246 179.055 58.136 175.783 56.0089 174.946Z" fill="#3F3F3F"/>
<path d="M78.0285 173.646C77.393 172.481 75.8923 172.769 74.9775 173.349C73.4364 174.38 72.1932 175.797 71.3721 177.458C71.3685 177.465 71.3666 177.473 71.3665 177.481C71.3664 177.489 71.3682 177.497 71.3717 177.504C71.3751 177.512 71.3802 177.518 71.3865 177.523C71.3929 177.529 71.4003 177.532 71.4082 177.534C71.4082 177.683 71.5073 177.858 71.6831 177.822C73.3911 177.431 75.2614 177.228 76.7936 176.328C77.6724 175.806 78.6279 174.749 78.0285 173.646ZM74.1302 176.702C73.2965 176.913 72.4582 177.084 71.6335 177.327C72.3157 176.506 73.0392 175.721 73.8012 174.974C74.1764 174.617 74.5754 174.286 74.9955 173.984C75.649 173.534 78.1186 172.701 77.4877 174.812C77.1407 175.977 75.1262 176.45 74.1302 176.702Z" fill="#3F3F3F"/>
<path d="M66.4148 176.287C67.9471 177.187 69.8173 177.399 71.5208 177.795C71.6966 177.835 71.8138 177.66 71.8003 177.507C71.8087 177.506 71.8168 177.503 71.8237 177.498C71.8306 177.493 71.8362 177.486 71.8398 177.479C71.8434 177.471 71.845 177.462 71.8444 177.454C71.8438 177.446 71.841 177.437 71.8363 177.43C71.0166 175.766 69.7733 174.346 68.231 173.313C67.3296 172.728 65.8199 172.435 65.18 173.596C64.54 174.757 65.518 175.761 66.4148 176.287ZM65.7117 174.766C65.0853 172.656 67.5505 173.493 68.2039 173.947C68.6235 174.25 69.0211 174.583 69.3937 174.942C70.1543 175.691 70.8763 176.478 71.5569 177.3C70.7322 177.057 69.8939 176.881 69.0602 176.67C68.0507 176.4 66.0543 175.95 65.7117 174.766Z" fill="#3F3F3F"/>
<path d="M75.2073 172.646L54.2558 164.2C54.2558 164.2 80.2322 126.062 80.4215 123.223C80.5928 120.712 69.1819 98.8329 68.7357 92.4564C68.249 85.5714 71.5659 80.2479 75.2163 76.9404L96.8258 86.1159C96.8258 86.1159 94.5454 89.7564 90.9671 91.7859C90.9671 91.7859 102.049 117.076 101.418 124.852C100.787 132.628 75.2073 172.646 75.2073 172.646Z" fill="#37474F"/>
<path d="M76.1357 168.669C73.1072 167.368 73.995 167.697 70.9485 166.418C69.4613 165.797 59.6818 161.734 58.1766 161.396C58.145 161.396 58.1225 161.441 58.154 161.459C59.4565 162.256 69.3171 166.148 70.8178 166.742C73.8868 167.949 73.017 167.571 76.0996 168.741C76.1042 168.747 76.1103 168.751 76.1173 168.755C76.1243 168.758 76.132 168.759 76.1397 168.758C76.1473 168.758 76.1547 168.755 76.161 168.751C76.1674 168.746 76.1725 168.74 76.176 168.734C76.1794 168.727 76.181 168.719 76.1807 168.711C76.1803 168.704 76.178 168.696 76.174 168.69C76.17 168.683 76.1643 168.678 76.1576 168.674C76.1509 168.67 76.1433 168.669 76.1357 168.669Z" fill="#3F3F3F"/>
<path d="M94.5093 91.3231C92.2595 91.8467 90.0584 92.5603 87.9296 93.4561C87.921 93.459 87.9131 93.4637 87.9063 93.4697C87.8995 93.4757 87.894 93.483 87.89 93.4911C87.886 93.4993 87.8837 93.5081 87.8831 93.5172C87.8826 93.5262 87.8838 93.5353 87.8868 93.5438C87.8897 93.5524 87.8944 93.5603 87.9004 93.5671C87.9064 93.5739 87.9137 93.5794 87.9218 93.5834C87.93 93.5874 87.9389 93.5897 87.9479 93.5902C87.957 93.5908 87.9661 93.5895 87.9747 93.5866C90.1829 92.9431 92.4273 92.3401 94.5995 91.5796C94.7662 91.5211 94.6806 91.2871 94.5093 91.3231Z" fill="#3F3F3F"/>
<path d="M91.936 90.4499C91.726 90.8228 91.5408 91.2091 91.3817 91.6064C91.2261 91.9078 91.1298 92.2362 91.0978 92.5739C91.0978 92.6414 91.1879 92.6549 91.2285 92.6144C91.4546 92.3443 91.637 92.0407 91.7693 91.7144C91.954 91.3589 92.1433 91.0079 92.3191 90.6434C92.4408 90.3779 92.0757 90.2069 91.936 90.4499Z" fill="#3F3F3F"/>
<path d="M92.2064 88.4065C92.3416 88.0735 92.4723 87.745 92.612 87.412C92.7517 87.079 92.9275 86.737 93.0627 86.386C93.0627 86.332 93.1708 86.386 93.1483 86.4265C93.0131 86.7595 92.9275 87.1105 92.8238 87.4525C92.7202 87.7945 92.603 88.1365 92.4903 88.4785C92.2785 89.113 92.0397 89.743 91.7467 90.3595C92.1014 90.3772 92.4555 90.3157 92.7833 90.1795C93.1181 89.9655 93.3755 89.6501 93.5179 89.2795C93.7071 88.9105 93.8829 88.5325 94.0767 88.1635C94.3152 87.7646 94.5159 87.3442 94.6761 86.908C94.6761 86.854 94.7842 86.908 94.7617 86.9485C94.4678 87.8708 94.0829 88.7617 93.6125 89.608C93.4097 89.9365 93.252 90.283 92.8824 90.409C92.4824 90.5207 92.0638 90.5498 91.6521 90.4945C91.598 90.4945 91.5349 90.4945 91.5529 90.4135C91.7375 89.7341 91.9556 89.0643 92.2064 88.4065Z" fill="#3F3F3F"/>
<path d="M91.2871 92.6096C92.0577 94.2341 92.7337 95.8541 93.4503 97.4741C94.1668 99.0941 94.8023 100.66 95.4467 102.271C96.7356 105.52 97.8893 108.832 98.9033 112.171C99.4036 113.827 99.8678 115.497 100.282 117.18C100.739 118.857 101.073 120.566 101.283 122.292C101.464 124.015 101.311 125.756 100.832 127.422C100.335 129.068 99.6974 130.668 98.9259 132.205C98.4527 133.177 98.2949 133.047 98.5203 132.556C99.1647 131.161 100.855 126.936 100.733 123.385C100.634 121.685 100.372 119.999 99.9489 118.35C99.5553 116.649 99.1122 114.961 98.6194 113.287C97.6595 109.984 96.5193 106.749 95.3476 103.518C94.6896 101.718 93.9956 99.9176 93.3196 98.1176C92.6436 96.3176 91.9676 94.6616 91.2105 92.6726C91.1879 92.5916 91.2645 92.5601 91.2871 92.6096Z" fill="#3F3F3F"/>
<path d="M75.3831 87.2412C75.7571 87.1017 76.2844 87.3312 76.663 87.3942C77.1532 87.4773 77.6486 87.5269 78.1457 87.5427C78.6374 87.56 79.1298 87.5434 79.6193 87.4932C80.1123 87.4805 80.5954 87.3526 81.0299 87.1197C81.7428 86.6011 82.3539 85.9559 82.8326 85.2162C83.403 84.4603 83.874 83.6346 84.2342 82.7592C84.2342 82.7052 84.3288 82.7592 84.3108 82.7952C84.1531 83.2947 84.0359 83.7987 83.8601 84.2892C83.6658 84.75 83.4337 85.194 83.1661 85.6167C82.7322 86.4671 82.0905 87.1946 81.3003 87.7317C80.4305 88.2267 79.3129 88.1817 78.344 88.1412C77.782 88.1085 77.2232 88.0348 76.672 87.9207C76.2754 87.8352 75.6084 87.7722 75.356 87.4257C75.3442 87.4124 75.3354 87.3967 75.3302 87.3797C75.3251 87.3627 75.3238 87.3447 75.3264 87.3271C75.3289 87.3095 75.3353 87.2927 75.3451 87.2779C75.3549 87.263 75.3679 87.2505 75.3831 87.2412Z" fill="#3F3F3F"/>
<path d="M60.2361 160.2C63.6792 154.992 67.0592 149.742 70.3761 144.45C73.693 139.158 76.9649 133.826 80.1917 128.453C80.9623 127.17 81.8501 125.892 82.3458 124.47C82.8866 122.927 82.5802 121.428 82.0935 119.916C81.1744 117.158 80.1001 114.454 78.8757 111.816C77.6679 109.157 76.3655 106.542 75.0856 103.919C73.8057 101.295 72.4672 98.7032 71.4803 95.9672C70.5789 93.3527 70.2139 90.6437 70.9169 87.9347C71.62 85.2257 73.1342 82.8317 74.7161 80.5772C75.1307 79.9832 75.5588 79.3937 75.9779 78.7772C76.0095 78.7322 76.0771 78.7772 76.0455 78.8312C74.3014 81.1802 72.6024 83.6687 71.5794 86.4272C71.0566 87.7869 70.7641 89.2241 70.7141 90.6797C70.7056 92.1573 70.9354 93.6266 71.3946 95.0312C72.2419 97.7672 73.5804 100.355 74.8287 102.929C76.0771 105.503 77.411 108.167 78.6414 110.817C79.9106 113.485 81.0388 116.217 82.0214 119.003C82.4405 120.24 82.9227 121.536 82.8866 122.864C82.8551 124.317 82.1611 125.627 81.44 126.851C78.2853 132.183 75.0541 137.453 71.7642 142.691C68.4743 147.929 65.0898 153.167 61.6647 158.351L60.3668 160.308C60.2992 160.389 60.1821 160.295 60.2361 160.2Z" fill="#3F3F3F"/>
<path d="M98.0245 61.8611C99.9759 66.1361 109.832 72.0266 114.447 72.6611C117.764 73.1111 127.85 73.2731 131.306 72.7466C135.362 72.1256 132.262 61.2131 129.869 61.4966C123.289 62.2616 117.701 63.1166 115.943 63.1166C113.798 63.1166 102.193 59.3996 100.796 58.8731C97.3711 57.5996 96.9204 59.4356 98.0245 61.8611Z" fill="#EB9481"/>
<path d="M98.0876 63C100.557 66.6495 108.764 72.6165 108.764 72.6165L109.904 70.0965L113.676 61.7625C113.676 61.7625 106.137 59.4 101.175 58.32C100.591 58.1873 99.9969 58.103 99.3991 58.068C96.2309 57.897 95.956 59.85 98.0876 63Z" fill="#D2E4FF"/>
<path d="M98.0876 62.9999C100.557 66.6494 108.764 72.6164 108.764 72.6164L109.904 70.0964C106.844 66.5459 102.117 61.1684 99.3991 58.0769C96.2309 57.8969 95.956 59.8499 98.0876 62.9999Z" fill="#3F3F3F"/>
<path d="M107.286 70.9245C107.912 69.39 110.697 63.2115 111.391 61.9245C111.436 61.8345 111.508 61.8435 111.468 61.9245C110.26 64.9971 108.885 68.0015 107.349 70.9245C107.331 70.9785 107.259 70.9605 107.286 70.9245Z" fill="#3F3F3F"/>
<path d="M128.661 61.6095C132.663 61.0875 137.616 60.192 141.811 61.9695C142.283 62.154 142.678 62.4917 142.934 62.928C144.826 63.693 145.034 64.8135 145.034 64.8135C146.579 66.0645 146.633 67.2435 146.633 67.2435C146.633 67.2435 148.851 68.1435 148.513 69.5925C148.143 71.1945 145.106 69.5925 142.897 69.723C137.827 70.038 130.729 71.8965 129.265 72.1305L128.661 61.6095Z" fill="#EB9481"/>
<path d="M137.354 66.3248C138.837 66.2235 140.324 66.2235 141.807 66.3248C143.421 66.527 145.018 66.8504 146.584 67.2923C146.594 67.2958 146.605 67.2953 146.615 67.2906C146.625 67.286 146.632 67.2777 146.636 67.2675C146.639 67.2574 146.639 67.2462 146.634 67.2365C146.629 67.2268 146.621 67.2193 146.611 67.2158C143.669 66.0634 140.467 65.7396 137.354 66.2798C137.282 66.2708 137.282 66.3293 137.354 66.3248Z" fill="#3F3F3F"/>
<path d="M136.412 61.65C138.886 61.776 140.432 62.172 142.92 62.919V62.892C140.18 61.749 139.058 61.641 136.399 61.542C136.313 61.578 136.318 61.65 136.412 61.65Z" fill="#3F3F3F"/>
<path d="M136.813 70.4873C136.169 70.7888 136.327 71.1263 137.557 71.4098C138.787 71.6933 143.902 71.7788 143.722 73.5608C143.542 75.3428 136.327 75.1178 134.312 74.4878C132.298 73.8578 129.265 72.1298 129.265 72.1298C130.693 71.8913 134.046 70.9868 136.813 70.4873Z" fill="#EB9481"/>
<path d="M103.383 68.6738C103.351 69.4433 103.279 70.2263 103.171 71.0048C103.171 70.9733 103.171 70.9463 103.203 70.9193C103.351 70.5143 103.5 70.1003 103.68 69.7088C103.68 69.7088 103.725 69.7088 103.721 69.7088C103.634 70.1378 103.504 70.557 103.333 70.9598C103.252 71.1533 103.176 71.3423 103.09 71.5313C103.036 71.8778 102.973 72.2198 102.905 72.5618C102.77 73.2053 102.162 75.9413 102.004 76.4048C101.977 76.4993 101.86 76.4768 101.869 76.3688C101.9 75.8648 102.41 73.0163 102.513 72.3683C102.715 71.1172 102.984 69.8778 103.32 68.6558C103.342 68.6333 103.387 68.6513 103.383 68.6738Z" fill="#3F3F3F"/>
<path d="M98.696 89.136C97.4927 89.7525 95.9424 90.711 88.9571 89.3385C88.5064 89.2485 88.0828 89.1405 87.6412 89.01C81.093 87.048 73.2198 79.3575 72.7917 78.813C72.7917 78.813 83.1976 61.9695 96.5058 56.673C98.1507 56.0205 100.873 57.2805 102.364 58.851C102.901 59.4135 104.068 63.549 103.622 66.897C103.176 70.245 99.8948 88.5195 98.696 89.136Z" fill="#D2E4FF"/>
<path d="M97.7587 66.7441C97.8089 67.4559 97.7091 68.1703 97.4657 68.8411C97.4086 68.1292 97.5086 67.4133 97.7587 66.7441Z" fill="white"/>
<path d="M93.2205 78.2139C93.2491 78.5681 93.237 78.9244 93.1844 79.2759C93.141 79.63 93.0548 79.9775 92.9275 80.3109C92.8965 79.9552 92.9086 79.5971 92.9636 79.2444C93.0097 78.8922 93.0958 78.5465 93.2205 78.2139Z" fill="white"/>
<path d="M85.5095 69.543C85.5603 70.2562 85.4605 70.9722 85.2166 71.6445C85.1599 70.931 85.2599 70.2138 85.5095 69.543Z" fill="white"/>
<path d="M100.729 77.6289C100.757 77.9846 100.745 78.3424 100.692 78.6954C100.649 79.0495 100.563 79.397 100.436 79.7304C100.405 79.3747 100.417 79.0167 100.472 78.6639C100.517 78.3102 100.603 77.9629 100.729 77.6289Z" fill="white"/>
<path d="M90.8274 68.0578C91.182 68.0276 91.5388 68.0382 91.891 68.0892C92.2458 68.1342 92.5938 68.2218 92.9275 68.3502C92.2147 68.4014 91.499 68.3017 90.8274 68.0578Z" fill="white"/>
<path d="M82.0754 76.3427C82.7883 76.2925 83.5037 76.3922 84.1755 76.6352C83.4625 76.6923 82.7456 76.5924 82.0754 76.3427Z" fill="white"/>
<path d="M92.3867 85.3109C93.0996 85.2598 93.8152 85.3594 94.4868 85.6034C93.7738 85.6596 93.0571 85.5597 92.3867 85.3109Z" fill="white"/>
<path d="M79.376 82.0527C80.0888 82.0025 80.8042 82.1021 81.4761 82.3452C80.7631 82.4014 80.0464 82.3015 79.376 82.0527Z" fill="white"/>
<path d="M97.691 58.6796C98.4039 58.6294 99.1193 58.7291 99.7911 58.9721C99.0783 59.0223 98.3629 58.9227 97.691 58.6796Z" fill="white"/>
<path d="M95.1448 61.5508C94.9169 61.8243 94.6566 62.0691 94.3696 62.2798C94.0904 62.4954 93.7881 62.6795 93.4683 62.8288C93.6946 62.5571 93.9517 62.3124 94.2344 62.0998C94.5163 61.8833 94.8217 61.6992 95.1448 61.5508Z" fill="white"/>
<path d="M81.2687 69.709C81.0381 69.9801 80.7765 70.2233 80.4891 70.4335C80.2127 70.6532 79.9099 70.8376 79.5878 70.9825C79.8196 70.7125 80.0811 70.4695 80.3674 70.258C80.6445 70.0392 80.9472 69.8549 81.2687 69.709Z" fill="white"/>
<path d="M98.5969 73.3906C98.3663 73.6631 98.1047 73.9078 97.8172 74.1196C97.5402 74.3384 97.2375 74.5227 96.9159 74.6686C97.1464 74.3961 97.4081 74.1515 97.6956 73.9396C97.9742 73.7231 98.2766 73.5389 98.5969 73.3906Z" fill="white"/>
<path d="M87.3753 80.4463C87.1447 80.7188 86.883 80.9635 86.5956 81.1753C86.3181 81.3934 86.0155 81.5777 85.6943 81.7243C85.9248 81.4518 86.1865 81.2071 86.4739 80.9953C86.7525 80.7787 87.0549 80.5945 87.3753 80.4463Z" fill="white"/>
<path d="M102.896 63.751C102.666 64.0235 102.404 64.2681 102.117 64.48C101.837 64.6956 101.535 64.8797 101.215 65.029C101.446 64.7565 101.707 64.5118 101.995 64.3C102.272 64.0819 102.575 63.8976 102.896 63.751Z" fill="white"/>
<path d="M102.662 71.9275C102.389 71.6973 102.144 71.436 101.932 71.149C101.712 70.8725 101.528 70.5703 101.382 70.249C101.656 70.4765 101.901 70.7364 102.112 71.023C102.327 71.3039 102.512 71.6072 102.662 71.9275Z" fill="white"/>
<path d="M77.6499 77.5613C77.377 77.3311 77.1319 77.0698 76.9198 76.7828C76.7029 76.5046 76.5185 76.2027 76.37 75.8828C76.6429 76.113 76.8879 76.3743 77.1001 76.6613C77.3185 76.9384 77.5031 77.2406 77.6499 77.5613Z" fill="white"/>
<path d="M99.6199 84.2619C99.346 84.0344 99.1009 83.7745 98.8898 83.4879C98.6739 83.2091 98.4895 82.9072 98.34 82.5879C98.6129 82.8181 98.858 83.0794 99.0701 83.3664C99.2876 83.6426 99.4721 83.9431 99.6199 84.2619Z" fill="white"/>
<path d="M88.6101 65.1594C88.3373 64.9307 88.0922 64.671 87.88 64.3854C87.665 64.1059 87.4806 63.8042 87.3302 63.4854C87.6041 63.7128 87.8492 63.9728 88.0603 64.2594C88.2753 64.5388 88.4596 64.8405 88.6101 65.1594Z" fill="white"/>
<path d="M88.8039 88.0779C88.531 87.8477 88.2859 87.5864 88.0738 87.2994C87.8576 87.0207 87.6732 86.7189 87.524 86.3994C87.7979 86.6269 88.043 86.8868 88.2541 87.1734C88.4709 87.4532 88.6554 87.7567 88.8039 88.0779Z" fill="white"/>
<path d="M90.6742 74.5603C90.4038 74.3288 90.1605 74.0677 89.9486 73.7818C89.7286 73.5058 89.5439 73.2035 89.3988 72.8818C89.6703 73.1121 89.9138 73.3734 90.1244 73.6603C90.3435 73.937 90.5281 74.2392 90.6742 74.5603Z" fill="white"/>
<path d="M99.9264 63.3369C98.2274 63.0219 96.632 59.5164 96.4292 57.1584C96.4292 56.9964 97.2224 55.7139 98.1282 54.1074C98.678 53.1309 99.2594 52.0284 99.7236 50.9844C99.8182 50.7729 100.373 51.4884 100.373 51.4884L101.58 52.3884L105.569 55.4439C104.619 56.5819 103.812 57.8317 103.167 59.1654C103.103 59.3099 103.055 59.4608 103.022 59.6154C103.021 59.6409 103.021 59.6664 103.022 59.6919C102.775 60.5829 101.562 63.6384 99.9264 63.3369Z" fill="#EB9481"/>
<path d="M103.022 59.6384C103.021 59.6639 103.021 59.6895 103.022 59.7149C102.786 59.6456 102.555 59.5568 102.333 59.4494C97.9659 57.4064 99.8903 51.5654 99.8903 51.5654L101.603 52.4114L105.591 55.4669C104.641 56.6049 103.835 57.8547 103.189 59.1884C103.118 59.3321 103.062 59.4829 103.022 59.6384Z" fill="#3F3F3F"/>
<path d="M110.152 43.0107C110.152 43.0107 112.148 44.2752 112.157 46.5252C112.166 48.7752 111.256 50.9757 111.067 51.0567C110.878 51.1377 110.152 43.0107 110.152 43.0107Z" fill="#3F3F3F"/>
<path d="M100.246 44.1811C99.0476 46.5436 99.1107 53.9911 100.607 55.9081C102.779 58.6891 106.961 59.6476 109.49 56.8981C111.937 54.2341 111.684 44.5321 109.94 42.7231C107.403 40.0501 102.022 40.6846 100.246 44.1811Z" fill="#EB9481"/>
<path d="M106.61 50.1436C106.61 50.1436 106.569 50.1706 106.574 50.1886C106.601 50.6971 106.547 51.2821 106.091 51.4621C106.091 51.4621 106.091 51.4936 106.091 51.4891C106.655 51.3991 106.718 50.6206 106.61 50.1436Z" fill="#3F3F3F"/>
<path d="M106.146 49.6259C105.325 49.5809 105.298 51.2189 106.06 51.2594C106.822 51.2999 106.831 49.6619 106.146 49.6259Z" fill="#3F3F3F"/>
<path d="M109.39 50.125C109.39 50.125 109.431 50.125 109.431 50.17C109.404 50.6785 109.462 51.2635 109.922 51.439C109.922 51.439 109.922 51.4705 109.922 51.466C109.354 51.3805 109.287 50.602 109.39 50.125Z" fill="#3F3F3F"/>
<path d="M109.855 49.6036C110.67 49.5541 110.711 51.1921 109.954 51.2371C109.197 51.2821 109.17 49.6441 109.855 49.6036Z" fill="#3F3F3F"/>
<path d="M105.632 48.3793C105.847 48.3181 106.059 48.246 106.267 48.1633C106.504 48.1205 106.72 48.0002 106.88 47.8213C106.919 47.7558 106.935 47.6793 106.926 47.6037C106.917 47.528 106.884 47.4574 106.831 47.4028C106.709 47.3102 106.564 47.2518 106.412 47.2336C106.26 47.2154 106.106 47.2381 105.965 47.2993C105.661 47.3806 105.398 47.5713 105.226 47.8348C105.192 47.8975 105.176 47.9687 105.181 48.0399C105.186 48.1112 105.212 48.1795 105.254 48.2368C105.297 48.2941 105.355 48.338 105.422 48.3632C105.489 48.3885 105.562 48.3941 105.632 48.3793Z" fill="#3F3F3F"/>
<path d="M110.413 49.1033C110.194 49.0543 109.978 48.9943 109.764 48.9233C109.527 48.8919 109.307 48.7827 109.138 48.6128C109.095 48.5502 109.074 48.4748 109.079 48.3988C109.083 48.3229 109.114 48.2508 109.165 48.1943C109.281 48.0951 109.422 48.0289 109.573 48.0028C109.723 47.9767 109.878 47.9915 110.021 48.0458C110.33 48.1096 110.603 48.2861 110.787 48.5408C110.826 48.6011 110.846 48.6712 110.846 48.7428C110.845 48.8143 110.824 48.8842 110.784 48.9438C110.744 49.0034 110.688 49.0502 110.622 49.0785C110.557 49.1068 110.484 49.1154 110.413 49.1033Z" fill="#3F3F3F"/>
<path d="M105.456 54.9537C105.578 55.0752 105.695 55.2372 105.88 55.2552C106.069 55.2551 106.256 55.2152 106.429 55.1382C106.429 55.1382 106.461 55.1382 106.429 55.1652C106.356 55.2641 106.256 55.341 106.142 55.3878C106.028 55.4346 105.903 55.4494 105.781 55.4307C105.678 55.4026 105.585 55.3451 105.515 55.2651C105.444 55.1851 105.399 55.0862 105.384 54.9807C105.38 54.9711 105.381 54.9605 105.385 54.9513C105.389 54.942 105.397 54.9347 105.406 54.9312C105.416 54.9276 105.427 54.9279 105.436 54.9322C105.445 54.9364 105.452 54.9441 105.456 54.9537Z" fill="#3F3F3F"/>
<path d="M108.403 52.7848C108.403 52.7848 108.426 53.5408 108.403 53.8963C107.711 53.8229 107.012 53.8472 106.326 53.9683C106.164 54.0043 106.182 53.8738 106.366 53.7883C106.919 53.5362 107.534 53.4547 108.133 53.5543C108.169 53.4598 108.074 52.3843 108.133 52.3888C108.406 52.4422 108.669 52.5331 108.917 52.6588C108.917 51.0748 108.665 49.5088 108.687 47.9248C108.687 47.8708 108.773 47.8618 108.782 47.9248C109.102 49.6005 109.253 51.304 109.233 53.0098C109.237 53.2033 108.539 52.8568 108.403 52.7848Z" fill="#3F3F3F"/>
<path d="M107.389 53.6258C107.21 54.0976 106.876 54.4954 106.443 54.7553C105.762 55.0298 105.542 54.4133 106.227 53.8553C106.586 53.674 106.988 53.5946 107.389 53.6258Z" fill="#3F3F3F"/>
<path d="M106.682 54.6159C106.61 54.6744 106.529 54.7215 106.443 54.7554C105.817 55.0074 105.569 54.5079 106.073 54.0039C106.416 54.0309 106.808 54.1569 106.682 54.6159Z" fill="#FF99BA"/>
<path d="M99.9038 50.5482C100.729 50.8002 101.675 48.3252 101.945 47.3982C102.18 46.5612 102.45 43.9017 102.491 43.7172C102.531 43.5327 106.096 46.0707 108.16 45.4677C110.224 44.8647 111.626 42.9972 111.657 42.1287C111.689 41.2602 109.106 39.0552 106.876 38.9427C104.645 38.8302 101.621 41.6427 101.621 41.6427C101.986 41.2288 102.318 40.7864 102.612 40.3197C102.576 40.2207 101.134 40.7967 100.868 41.8227C100.868 41.8227 101.157 40.5312 101.048 40.5087C100.94 40.4862 99.8182 41.5887 100.071 42.4257C100.071 42.4257 98.7726 43.5462 98.6555 44.7747C98.5383 46.0032 98.9349 50.2512 99.9038 50.5482Z" fill="#3F3F3F"/>
<path d="M109.638 44.9998C109.024 45.3322 108.363 45.5689 107.678 45.7018C106.908 45.7703 106.134 45.6466 105.424 45.3418C104.71 45.0661 104.046 44.6737 103.46 44.1808C102.941 43.7578 102.477 43.2403 101.923 42.8623C101.783 42.7633 101.625 42.9658 101.711 43.0918C102.636 44.3962 103.957 45.3682 105.479 45.8638C106.185 46.0939 106.94 46.1369 107.668 45.9886C108.396 45.8403 109.074 45.5058 109.634 45.0178C109.634 45.0178 109.647 44.9998 109.638 44.9998Z" fill="#3F3F3F"/>
<path d="M100.765 50.3276C100.765 50.3276 99.4847 47.7356 98.331 48.1541C97.1773 48.5726 97.8803 52.1591 99.0656 52.8161C99.2107 52.9099 99.3734 52.9735 99.5438 53.003C99.7142 53.0325 99.8887 53.0273 100.057 52.9878C100.225 52.9483 100.384 52.8753 100.523 52.7731C100.663 52.6709 100.78 52.5417 100.868 52.3931L100.765 50.3276Z" fill="#EB9481"/>
<path d="M98.5608 49.1758C98.5608 49.1758 98.5338 49.1758 98.5608 49.2118C99.3811 49.6978 99.7145 50.5618 99.9128 51.4618C99.8755 51.3665 99.8179 51.2805 99.744 51.2096C99.6701 51.1388 99.5816 51.0848 99.4848 51.0514C99.3879 51.018 99.285 51.006 99.183 51.0163C99.0811 51.0265 98.9826 51.0588 98.8943 51.1108C98.8673 51.1108 98.8943 51.1603 98.8943 51.1603C99.0556 51.1352 99.2206 51.1608 99.3667 51.2333C99.5128 51.3058 99.6327 51.4218 99.71 51.5653C99.839 51.8056 99.9418 52.059 100.016 52.3213C100.044 52.4068 100.192 52.3843 100.179 52.2898C100.373 51.1693 99.7416 49.4728 98.5608 49.1758Z" fill="#3F3F3F"/>
<path d="M92.3146 61.9014C91.4133 66.9999 96.9474 84.1764 100.494 87.3849C105.771 92.1549 115.528 95.2914 119.066 96.3129C120.607 96.7629 124.871 85.9314 123.311 85.2159C119.972 83.6994 109.598 80.4594 108.611 79.6494C107.624 78.8394 101.675 70.2579 99.025 65.3169C95.4783 58.6659 92.7607 59.3229 92.3146 61.9014Z" fill="#EB9481"/>
<path d="M120.684 84.2627C120.684 84.2627 125.29 85.4372 128.26 86.3417C129.918 86.8502 132.685 87.9707 133.735 88.8977C135.304 90.2882 140.973 97.0922 139.351 98.5007C137.881 99.7787 133.753 93.3122 133.753 93.3122C133.753 93.3122 138.494 99.4682 136.457 100.679C134.42 101.889 130.693 93.9647 130.693 93.9647C130.693 93.9647 135.421 100.4 133.109 101.313C131.36 102.002 127.611 95.0132 127.611 95.0132C127.611 95.0132 131.64 100.571 129.864 101.358C127.908 102.231 124.046 95.9942 124.046 95.9942C119.215 97.2407 116.385 95.8592 114.523 94.6442C114.086 94.3472 120.684 84.2627 120.684 84.2627Z" fill="#EB9481"/>
<path d="M132.248 91.0748C132.834 91.7768 133.429 92.4878 133.947 93.2393C134.465 93.9908 134.957 94.7648 135.403 95.5613C136.007 96.5916 136.491 97.6877 136.845 98.8283C136.07 96.8483 134.254 94.1258 133.735 93.3743C133.217 92.6228 132.735 91.8443 132.221 91.0928C132.208 91.0748 132.235 91.0568 132.248 91.0748Z" fill="#3F3F3F"/>
<path d="M129.495 92.8982C130.495 93.6902 132.591 96.6332 133.397 98.6087C133.433 98.6897 133.397 98.6852 133.339 98.6087C132.708 97.6322 130.148 93.8522 129.472 92.9117C129.459 92.8982 129.481 92.8847 129.495 92.8982Z" fill="#3F3F3F"/>
<path d="M126.849 94.05C128.092 95.3519 129.074 96.8794 129.742 98.55C129.774 98.631 129.711 98.6175 129.661 98.55C128.728 97.0335 128.007 95.85 126.8 94.0905C126.782 94.05 126.822 94.0095 126.849 94.05Z" fill="#3F3F3F"/>
<path d="M97.344 62.2749C93.2294 56.4654 90.7688 58.6164 91.5935 64.9254C92.3687 70.8249 94.4372 77.8539 94.4372 77.8539L104.803 72.8319C104.803 72.8319 99.9624 65.9964 97.344 62.2749Z" fill="#D2E4FF"/>
<path d="M99.8452 64.5615C99.9818 64.8897 100.08 65.2324 100.138 65.583C100.201 65.9348 100.224 66.2926 100.206 66.6495C100.071 66.3197 99.9738 65.9754 99.9173 65.6235C99.8503 65.2737 99.8261 64.9171 99.8452 64.5615Z" fill="white"/>
<path d="M93.7026 68.0933C94.3641 67.8247 95.0759 67.7019 95.7892 67.7333C95.4604 67.8683 95.1172 67.9649 94.7662 68.0213C94.4159 68.0881 94.0588 68.1123 93.7026 68.0933Z" fill="white"/>
<path d="M93.9686 59.0576C93.6895 59.7153 93.2731 60.3059 92.7473 60.7901C93.0263 60.1325 93.4427 59.5418 93.9686 59.0576Z" fill="white"/>
<path d="M102.752 70.8076C102.615 71.1367 102.441 71.4492 102.234 71.7391C102.032 72.0327 101.796 72.3015 101.531 72.5401C101.81 71.8825 102.226 71.2918 102.752 70.8076Z" fill="white"/>
<path d="M95.5414 74.3308C95.211 74.1958 94.8978 74.0221 94.6085 73.8133C94.3143 73.6117 94.0451 73.376 93.8063 73.1113C94.4649 73.39 95.0564 73.8058 95.5414 74.3308Z" fill="white"/>
<path d="M98.696 64.0254C99.2504 64.7859 99.8227 65.5284 100.391 66.2754C100.246 65.8974 100.12 65.5149 100.012 65.1279H100.039C100.152 65.4249 100.282 65.7174 100.391 66.0279L100.553 66.4779C100.567 66.5086 100.579 66.5402 100.589 66.5724C101.04 67.1529 101.49 67.7334 101.905 68.3274C102.414 69.0384 102.905 69.7584 103.401 70.4784C103.897 71.1984 104.397 72.0939 104.933 72.8184C104.983 72.8814 104.032 73.2684 103.928 73.3179C103.825 73.3674 103.771 73.2819 103.87 73.2504C103.969 73.2189 104.726 72.7554 104.735 72.7464C104.239 72.0174 103.667 71.3469 103.149 70.6404C102.63 69.9339 102.117 69.2274 101.616 68.5119C100.602 67.0539 99.674 65.5419 98.6645 64.0794L98.696 64.0254Z" fill="#3F3F3F"/>
<path d="M91.8369 69.1014C91.9946 69.4074 92.1659 69.7089 92.2875 70.0239L92.4588 70.4154C92.2199 69.2949 92.0081 68.1654 91.7603 67.0449C92.238 68.8449 92.7202 70.6854 93.1618 72.5124C93.5809 74.2584 94.0902 76.0224 94.3336 77.8044C94.6478 77.6668 94.9735 77.5569 95.307 77.4759C94.9724 77.6922 94.6121 77.866 94.2344 77.9934C93.6912 76.1813 93.2399 74.343 92.8824 72.4854C92.7697 71.9814 92.6661 71.4774 92.5579 70.9734C92.4408 70.6674 92.3011 70.3749 92.1613 70.0734C92.0216 69.7719 91.8955 69.4344 91.7693 69.1149C91.7963 69.0969 91.8279 69.0789 91.8369 69.1014Z" fill="#3F3F3F"/>
<path d="M94.5904 76.1168C96.0326 75.3068 102.058 72.1928 103.405 71.6168C103.5 71.5763 103.55 71.6168 103.455 71.6798C100.595 73.3393 97.6462 74.8415 94.622 76.1798C94.5859 76.1888 94.5499 76.1393 94.5904 76.1168Z" fill="#3F3F3F"/>
<path d="M259.728 194.423H122.419L142.271 81.9902H279.58L259.728 194.423Z" fill="#D2E4FF"/>
<path d="M189.266 70.3438H144.33L142.271 81.9897H190.362L189.266 70.3438Z" fill="#D2E4FF"/>
<g opacity="0.1">
<path opacity="0.1" d="M259.728 194.423H122.419L142.271 81.9902H279.58L259.728 194.423Z" fill="#3F3F3F"/>
<path opacity="0.1" d="M189.266 70.3438H144.33L142.271 81.9897H190.362L189.266 70.3438Z" fill="#3F3F3F"/>
</g>
<path d="M139.481 75.0957C139.181 73.8079 139.181 72.4684 139.481 71.1807C139.782 72.4684 139.782 73.8079 139.481 75.0957Z" fill="#3F3F3F"/>
<path d="M135.488 76.2473C135.03 75.7722 134.634 75.2397 134.312 74.6633C133.974 74.0988 133.709 73.494 133.523 72.8633C133.984 73.3356 134.379 73.8667 134.7 74.4428C135.037 75.0092 135.302 75.6154 135.488 76.2473Z" fill="#3F3F3F"/>
<path d="M132.604 79.2407C131.338 78.8562 130.177 78.1865 129.211 77.2832C129.842 77.4666 130.448 77.7297 131.013 78.0662C131.591 78.3898 132.125 78.7844 132.604 79.2407Z" fill="#3F3F3F"/>
<path d="M131.595 83.2719C130.305 83.5719 128.963 83.5719 127.674 83.2719C128.963 82.9719 130.305 82.9719 131.595 83.2719Z" fill="#3F3F3F"/>
<path d="M132.766 87.2588C132.289 87.7146 131.756 88.1091 131.18 88.4333C130.615 88.7698 130.009 89.0329 129.377 89.2163C129.853 88.7581 130.386 88.3633 130.964 88.0418C131.528 87.7037 132.134 87.4405 132.766 87.2588Z" fill="#3F3F3F"/>
<path d="M135.759 90.1348C135.375 91.4012 134.704 92.5622 133.798 93.5278C133.982 92.8961 134.247 92.291 134.587 91.7278C134.908 91.1492 135.302 90.6139 135.759 90.1348Z" fill="#3F3F3F"/>
<path d="M139.797 91.1289C139.954 91.7694 140.03 92.427 140.022 93.0864C140.032 93.7459 139.956 94.4038 139.797 95.0439C139.635 94.4042 139.56 93.746 139.571 93.0864C139.564 92.427 139.64 91.7694 139.797 91.1289Z" fill="#3F3F3F"/>
<path d="M143.79 90.0002C144.249 90.4753 144.644 91.0078 144.966 91.5842C145.305 92.1476 145.568 92.7527 145.75 93.3842C144.844 92.4187 144.173 91.2576 143.79 89.9912V90.0002Z" fill="#3F3F3F"/>
<path d="M146.669 86.9844C147.302 87.166 147.908 87.4293 148.472 87.7674C149.049 88.0889 149.583 88.4837 150.058 88.9419C149.426 88.7602 148.82 88.497 148.256 88.1589C147.678 87.8374 147.145 87.4426 146.669 86.9844Z" fill="#3F3F3F"/>
<path d="M147.665 82.9525C148.957 82.6526 150.3 82.6526 151.591 82.9525C150.3 83.2524 148.957 83.2524 147.665 82.9525Z" fill="#3F3F3F"/>
<path d="M146.512 78.9653C146.989 78.5099 147.522 78.1167 148.098 77.7953C148.661 77.454 149.267 77.1891 149.901 77.0078C148.934 77.9124 147.771 78.5822 146.503 78.9653H146.512Z" fill="#3F3F3F"/>
<path d="M143.515 76.09C143.7 75.4599 143.964 74.8552 144.299 74.29C144.621 73.7136 145.016 73.1812 145.475 72.7061C145.293 73.3375 145.03 73.9426 144.691 74.5061C144.369 75.0825 143.974 75.6149 143.515 76.09Z" fill="#3F3F3F"/>
<path d="M259.525 194.422H121.923L102.382 86.0713H239.989L259.525 194.422Z" fill="#D2E4FF"/>
<path d="M150.067 152.307C153.226 152.307 155.786 149.75 155.786 146.596C155.786 143.442 153.226 140.886 150.067 140.886C146.909 140.886 144.349 143.442 144.349 146.596C144.349 149.75 146.909 152.307 150.067 152.307Z" fill="#3F3F3F"/>
<path d="M195.278 152.307C198.437 152.307 200.997 149.75 200.997 146.596C200.997 143.442 198.437 140.886 195.278 140.886C192.12 140.886 189.559 143.442 189.559 146.596C189.559 149.75 192.12 152.307 195.278 152.307Z" fill="#3F3F3F"/>
<path d="M180.889 153.22L180.573 152.622C180.546 152.568 177.59 147.114 171.645 147.114C166.237 147.114 164.885 152.248 164.849 152.469L164.687 153.121L163.376 152.806L163.533 152.149C163.533 152.086 165.147 145.764 171.645 145.764C178.405 145.764 181.637 151.74 181.772 151.996L182.087 152.59L180.889 153.22Z" fill="#3F3F3F"/>
<path d="M250.44 146.16L250.345 145.71C250.638 145.647 250.927 145.579 251.215 145.503L251.328 145.953C251.021 146.029 250.737 146.097 250.44 146.16Z" fill="#3F3F3F"/>
<path d="M253.072 145.435L252.928 145.012C253.491 144.819 254.054 144.607 254.6 144.378L254.775 144.792C254.221 145.026 253.649 145.242 253.072 145.435ZM256.429 144L256.227 143.604C256.754 143.329 257.281 143.032 257.781 142.704L258.016 143.086C257.502 143.442 256.966 143.743 256.429 144ZM259.53 142.096L259.264 141.732C259.751 141.376 260.219 141.003 260.661 140.62L260.959 140.958C260.485 141.367 260.035 141.75 259.525 142.114L259.53 142.096ZM262.279 139.702L261.95 139.392C262.365 138.942 262.757 138.492 263.117 138.042L263.473 138.316C263.099 138.811 262.698 139.275 262.288 139.72L262.279 139.702ZM264.51 136.822L264.127 136.584C264.438 136.081 264.715 135.558 264.956 135.018L265.371 135.202C265.116 135.765 264.827 136.312 264.505 136.84L264.51 136.822ZM266.001 133.483L265.551 133.357C265.715 132.792 265.837 132.216 265.916 131.634L266.367 131.692C266.292 132.304 266.168 132.909 265.997 133.501L266.001 133.483ZM266.502 129.883H266.051V129.753C266.051 129.208 266.019 128.655 265.965 128.11L266.416 128.065C266.475 128.626 266.505 129.189 266.506 129.753L266.502 129.883ZM265.691 126.36C265.569 125.779 265.419 125.206 265.24 124.641L265.691 124.506C265.875 125.091 266.033 125.685 266.141 126.265L265.691 126.36ZM264.622 122.971C264.406 122.44 264.172 121.896 263.883 121.347L264.289 121.144C264.564 121.702 264.816 122.26 265.037 122.8L264.622 122.971ZM263.045 119.763C262.766 119.272 262.459 118.755 262.144 118.224L262.527 117.985C262.856 118.521 263.167 119.043 263.428 119.542L263.045 119.763ZM261.161 116.707C260.832 116.212 260.499 115.713 260.156 115.213L260.53 114.961C260.873 115.461 261.206 115.96 261.535 116.464L261.161 116.707ZM259.133 113.728C258.795 113.233 258.453 112.734 258.119 112.239L258.493 111.987C258.827 112.482 259.165 112.981 259.503 113.472L259.133 113.728ZM257.119 110.731C256.79 110.227 256.47 109.714 256.154 109.201L256.537 108.967C256.853 109.48 257.173 109.984 257.497 110.488L257.119 110.731ZM255.24 107.64C254.933 107.095 254.649 106.555 254.392 106.038L254.798 105.835C255.05 106.348 255.334 106.879 255.632 107.419L255.24 107.64ZM253.64 104.4C253.401 103.837 253.189 103.266 252.991 102.708L253.441 102.564C253.631 103.108 253.843 103.671 254.077 104.224L253.64 104.4ZM252.468 100.966C252.319 100.381 252.189 99.7825 252.089 99.166L252.54 99.094C252.639 99.67 252.761 100.255 252.91 100.831L252.468 100.966ZM251.864 97.366C251.819 96.8125 251.796 96.2545 251.796 95.6965V95.548H252.247V95.692C252.247 96.2365 252.247 96.7855 252.315 97.3255L251.864 97.366ZM252.315 93.766L251.864 93.721C251.864 93.5995 251.887 93.4735 251.9 93.343C251.954 92.8615 252.022 92.38 252.103 91.921L252.554 91.9975C252.477 92.4475 252.409 92.92 252.355 93.3925C252.373 93.532 252.373 93.6535 252.337 93.7795L252.315 93.766ZM252.941 90.265L252.49 90.1435C252.657 89.5495 252.851 88.969 253.067 88.4155L253.486 88.5775C253.282 89.1347 253.107 89.7025 252.964 90.2785L252.941 90.265ZM275.398 87.6415C275.146 87.6415 274.884 87.6055 274.627 87.5695C274.276 87.52 273.924 87.4615 273.577 87.394L273.667 86.944C274.001 87.007 274.348 87.0655 274.69 87.115C274.934 87.1465 275.182 87.169 275.42 87.1825L275.398 87.6415ZM277.25 87.502L277.155 87.052C277.721 86.9354 278.263 86.7256 278.76 86.431L278.994 86.8135C278.463 87.1415 277.882 87.3788 277.273 87.5155L277.25 87.502ZM254.239 86.9665L253.838 86.755C254.125 86.2184 254.442 85.6985 254.789 85.198L255.158 85.4545C254.829 85.9446 254.53 86.454 254.262 86.98L254.239 86.9665ZM271.815 86.9395C271.233 86.7553 270.662 86.5405 270.103 86.296L270.287 85.882C270.829 86.1224 271.384 86.3313 271.95 86.5075L271.815 86.9395ZM280.378 85.5355L280.004 85.2835C280.325 84.8187 280.515 84.2763 280.554 83.713L281.004 83.7445C280.966 84.3901 280.754 85.0134 280.391 85.549L280.378 85.5355ZM268.48 85.468C267.953 85.1619 267.443 84.8269 266.952 84.4645L267.218 84.1045C267.695 84.456 268.192 84.7805 268.705 85.0765L268.48 85.468ZM256.267 84.064L255.934 83.7625C256.342 83.3094 256.777 82.8811 257.236 82.48L257.533 82.8175C257.091 83.2125 256.673 83.6333 256.281 84.0775L256.267 84.064ZM265.546 83.3035C265.097 82.8907 264.672 82.4535 264.271 81.994L264.609 81.697C264.999 82.1433 265.413 82.5685 265.848 82.9705L265.546 83.3035ZM280.216 82.084C279.957 81.5698 279.601 81.1111 279.165 80.734L279.463 80.3965C279.942 80.8101 280.335 81.313 280.621 81.877L280.216 82.084ZM258.935 81.7285L258.678 81.3595C259.182 81.0159 259.704 80.6989 260.242 80.41L260.454 80.806C259.936 81.0917 259.434 81.4041 258.949 81.742L258.935 81.7285ZM263.144 80.5585C262.973 80.3155 262.806 80.068 262.649 79.8115L262.063 80.041L261.891 79.627L262.41 79.42C262.329 79.285 262.247 79.15 262.171 79.015L262.563 78.7945C262.653 78.952 262.743 79.1095 262.838 79.2445C263.09 79.1545 263.347 79.069 263.608 78.988L263.739 79.438C263.518 79.5055 263.288 79.5775 263.081 79.654C263.221 79.8745 263.365 80.104 263.532 80.2975L263.144 80.5585ZM277.714 79.7845C277.278 79.5675 276.826 79.384 276.362 79.2355L276.065 79.141L276.196 78.691L276.502 78.79C276.985 78.9437 277.455 79.1348 277.908 79.3615L277.714 79.7845ZM265.465 78.979L265.371 78.529C265.952 78.3985 266.556 78.2905 267.173 78.205L267.241 78.655C266.646 78.7495 266.056 78.862 265.479 78.9925L265.465 78.979ZM274.343 78.736C273.78 78.637 273.185 78.5605 272.577 78.5065L272.613 78.0565C273.239 78.1105 273.848 78.187 274.415 78.2905L274.343 78.736ZM269.003 78.475L268.971 78.025C269.508 77.9935 270.044 77.9755 270.576 77.9755H270.797V78.4255H270.58C270.071 78.439 269.539 78.4525 269.016 78.4885L269.003 78.475ZM261.387 77.3995C261.143 76.8505 260.936 76.279 260.733 75.6985L261.184 75.559C261.373 76.126 261.585 76.684 261.819 77.2195L261.387 77.3995ZM260.246 73.9435C260.111 73.363 259.999 72.76 259.913 72.1435L260.364 72.0805C260.449 72.6745 260.557 73.264 260.688 73.8355L260.246 73.9435ZM259.742 70.3435C259.719 69.9385 259.706 69.5245 259.706 69.1105C259.706 68.917 259.706 68.719 259.706 68.5255H260.156C260.156 68.719 260.156 68.908 260.156 69.1015C260.156 69.5065 260.156 69.916 260.188 70.3075L259.742 70.3435ZM260.278 66.7435L259.827 66.6985C259.89 66.1045 259.976 65.497 260.08 64.8985L260.53 64.975C260.409 65.5735 260.323 66.1495 260.264 66.7525L260.278 66.7435ZM260.895 63.229L260.445 63.121C260.589 62.5405 260.756 61.9555 260.94 61.3705L261.391 61.51C261.188 62.0995 261.022 62.671 260.882 63.238L260.895 63.229ZM261.977 59.8225L261.558 59.6605C261.779 59.098 262.009 58.5355 262.283 57.991L262.689 58.189C262.419 58.729 262.18 59.278 261.964 59.8495L261.977 59.8225ZM263.527 56.614L263.135 56.3845C263.442 55.867 263.771 55.3495 264.113 54.8545L264.483 55.111C264.131 55.606 263.811 56.11 263.514 56.623L263.527 56.614ZM265.56 53.6845L265.208 53.401C265.587 52.951 265.992 52.474 266.412 52.051L266.736 52.3615C266.312 52.7845 265.916 53.2345 265.546 53.6935L265.56 53.6845ZM268.011 51.0925L267.71 50.7595C268.16 50.359 268.611 49.963 269.093 49.5805L269.372 49.936C268.89 50.3185 268.431 50.71 267.998 51.1015L268.011 51.0925ZM270.81 48.8695L270.553 48.496C271.044 48.1585 271.558 47.8255 272.081 47.5105L272.311 47.893C271.788 48.2125 271.301 48.541 270.797 48.8785L270.81 48.8695ZM273.87 47.011L273.658 46.615C274.19 46.3315 274.74 46.0615 275.29 45.8095L275.479 46.219C274.907 46.4755 274.379 46.7455 273.857 47.02L273.87 47.011ZM277.128 45.517L276.962 45.094C277.53 44.8735 278.102 44.644 278.67 44.4775L278.814 44.9275C278.242 45.0985 277.674 45.3055 277.115 45.526L277.128 45.517Z" fill="#3F3F3F"/>
<path d="M280.603 44.3787L280.49 43.9287C281.049 43.7847 281.392 43.7217 281.392 43.7217L281.473 44.1717C281.473 44.1717 281.148 44.2392 280.603 44.3787Z" fill="#3F3F3F"/>
<path d="M288.571 41.4715C287.422 37.9165 279.724 39.1945 281.225 43.843C282.726 48.4915 289.72 45.031 288.571 41.4715Z" fill="#3F3F3F"/>
<path d="M277.038 40.0496C277.097 38.4881 279.269 37.2866 282.343 37.8401C285.416 38.3936 288.305 40.4636 288.305 40.4636C288.305 40.4636 285.272 42.2996 282.167 42.6371C279.062 42.9746 276.98 41.6066 277.038 40.0496Z" fill="#EBEBEB"/>
<path d="M288.305 40.4545C286.71 40.4545 285.119 40.4095 283.528 40.36C281.937 40.3105 280.342 40.2295 278.751 40.1035C280.346 40.1035 281.942 40.144 283.532 40.1935C285.123 40.243 286.719 40.324 288.305 40.4545Z" fill="#3F3F3F"/>
<path d="M280.125 38.6592C281.031 39.0918 281.885 39.6247 282.672 40.2477C282.218 40.0353 281.779 39.7948 281.356 39.5277C280.929 39.2624 280.518 38.9724 280.125 38.6592Z" fill="#3F3F3F"/>
<path d="M284.303 40.3057C283.488 40.9654 282.604 41.5357 281.667 42.0067C282.486 41.3461 283.375 40.7758 284.317 40.3057H284.303Z" fill="#3F3F3F"/>
<path d="M284.767 39.4287C285.222 39.6468 285.62 39.9671 285.93 40.3647C285.703 40.2575 285.489 40.123 285.294 39.9642C285.099 39.8064 284.922 39.6267 284.767 39.4287Z" fill="#3F3F3F"/>
<path d="M279.968 49.2974C280.928 50.5304 283.393 50.2334 285.56 47.9924C287.728 45.7514 288.877 42.3809 288.877 42.3809C288.877 42.3809 285.326 42.6509 282.618 44.1809C279.909 45.7109 279.003 48.0599 279.968 49.2974Z" fill="#EBEBEB"/>
<path d="M288.877 42.3809C287.579 43.2809 286.318 44.2799 285.051 45.2474C283.785 46.2149 282.545 47.2139 281.333 48.2444C282.631 47.3444 283.893 46.3499 285.155 45.3824C286.417 44.4149 287.647 43.4159 288.877 42.3809Z" fill="#3F3F3F"/>
<path d="M283.28 48.5992C283.521 48.162 283.736 47.7113 283.924 47.2492C284.116 46.7857 284.279 46.3108 284.411 45.8271C284.17 46.2639 283.954 46.7147 283.767 47.1771C283.577 47.6413 283.414 48.1161 283.28 48.5992Z" fill="#3F3F3F"/>
<path d="M285.723 44.8376C284.668 44.7813 283.611 44.8371 282.568 45.0041C283.093 45.0356 283.62 45.0356 284.145 45.0041C284.674 44.9784 285.2 44.9228 285.723 44.8376Z" fill="#3F3F3F"/>
<path d="M286.592 45.2834C286.713 45.0611 286.807 44.8255 286.872 44.5814C286.939 44.339 286.978 44.09 286.989 43.8389C286.749 44.2843 286.614 44.7782 286.592 45.2834Z" fill="#3F3F3F"/>
<path d="M288.571 41.4719C288.316 41.5544 288.043 41.5597 287.786 41.487C287.528 41.4143 287.298 41.2669 287.124 41.0636C286.951 40.8602 286.842 40.61 286.81 40.3446C286.779 40.0792 286.828 39.8106 286.95 39.5727C287.072 39.3349 287.262 39.1385 287.495 39.0085C287.729 38.8785 287.996 38.8206 288.263 38.8424C288.53 38.8641 288.784 38.9643 288.994 39.1304C289.203 39.2965 289.359 39.521 289.441 39.7754C289.55 40.1155 289.52 40.4851 289.357 40.8031C289.194 41.1211 288.911 41.3616 288.571 41.4719Z" fill="#455A64"/>
<path d="M289.4 44.0407C289.146 44.1229 288.873 44.1279 288.615 44.0552C288.358 43.9824 288.128 43.8351 287.955 43.632C287.781 43.4288 287.672 43.1788 287.641 42.9137C287.61 42.6485 287.658 42.3801 287.78 42.1424C287.901 41.9046 288.091 41.7082 288.324 41.5779C288.557 41.4476 288.824 41.3894 289.091 41.4105C289.357 41.4316 289.612 41.5311 289.821 41.6965C290.031 41.8619 290.187 42.0857 290.27 42.3397C290.325 42.5084 290.346 42.6862 290.332 42.8631C290.318 43.0399 290.269 43.2122 290.188 43.3702C290.107 43.5281 289.996 43.6686 289.861 43.7837C289.726 43.8988 289.569 43.9861 289.4 44.0407Z" fill="#455A64"/>
<path d="M141.649 42.8942C141.433 44.9611 140.646 46.9275 139.376 48.5738C138.106 50.2202 136.403 51.4817 134.457 52.2178C132.51 52.9538 130.398 53.1353 128.354 52.742C126.31 52.3488 124.416 51.3963 122.883 49.9907L117.263 50.8142L120.076 45.9632C119.433 44.3848 119.158 42.6808 119.273 40.9806C119.389 39.2805 119.89 37.6289 120.74 36.1513C121.59 34.6737 122.767 33.409 124.18 32.4533C125.592 31.4975 127.205 30.8759 128.894 30.6355C130.584 30.3952 132.306 30.5425 133.93 31.0662C135.554 31.5899 137.037 32.4763 138.267 33.658C139.496 34.8398 140.44 36.2857 141.026 37.8861C141.612 39.4865 141.825 41.1993 141.649 42.8942Z" fill="white"/>
<path d="M141.649 42.8944C141.438 44.9602 140.658 46.9274 139.396 48.5779C138.779 49.4127 138.036 50.146 137.192 50.7514C136.367 51.3794 135.456 51.887 134.488 52.2589C133.519 52.6399 132.501 52.8823 131.464 52.9789C130.946 53.0253 130.425 53.0359 129.905 53.0104C129.383 52.997 128.863 52.9428 128.35 52.8484C126.279 52.4679 124.355 51.5189 122.793 50.1079L122.924 50.1484L117.313 51.0079L116.903 51.0709L117.11 50.7109L119.904 45.8509V46.0444C119.245 44.4368 118.965 42.6994 119.085 40.9664C119.205 39.2334 119.723 37.5512 120.598 36.0499C121.473 34.5533 122.674 33.2734 124.114 32.3059C125.551 31.3512 127.186 30.7339 128.896 30.5001C130.606 30.2663 132.347 30.4221 133.988 30.9559C135.611 31.5075 137.091 32.4146 138.319 33.6109C139.543 34.8042 140.48 36.2603 141.057 37.8689C141.634 39.4774 141.836 41.196 141.649 42.8944ZM141.649 42.8944C141.831 41.2044 141.622 39.4952 141.037 37.8988C140.453 36.3024 139.509 34.8615 138.278 33.6873C137.047 32.5131 135.563 31.6371 133.939 31.1268C132.315 30.6165 130.596 30.4857 128.913 30.7444C127.248 30.9905 125.661 31.6156 124.276 32.5714C122.903 33.5346 121.755 34.7845 120.914 36.2344C120.085 37.6875 119.597 39.309 119.485 40.9774C119.376 42.6571 119.647 44.3398 120.278 45.9004L120.319 45.9994L120.265 46.0939L117.435 50.9359L117.236 50.6389L122.861 49.8514H122.937L122.991 49.9009C124.495 51.2981 126.358 52.2501 128.372 52.6504C128.874 52.7525 129.384 52.8142 129.896 52.8349C130.407 52.8709 130.921 52.8709 131.432 52.8349C132.458 52.7523 133.468 52.5298 134.434 52.1734C135.402 51.8216 136.313 51.3304 137.138 50.7154C137.978 50.1149 138.722 49.3913 139.346 48.5689C140.624 46.9263 141.422 44.9621 141.649 42.8944Z" fill="#3F3F3F"/>
<path d="M124.988 46.9576C124.979 46.8086 125.001 46.6595 125.053 46.5194C125.104 46.3793 125.184 46.2512 125.287 46.1432C125.39 46.0352 125.515 45.9495 125.652 45.8914C125.79 45.8333 125.938 45.8041 126.088 45.8056C126.394 45.8056 126.687 45.927 126.903 46.143C127.12 46.3591 127.241 46.6521 127.241 46.9576C127.241 47.2631 127.12 47.5562 126.903 47.7722C126.687 47.9882 126.394 48.1096 126.088 48.1096C125.938 48.1111 125.79 48.0819 125.652 48.0238C125.515 47.9657 125.39 47.88 125.287 47.772C125.184 47.664 125.104 47.536 125.053 47.3959C125.001 47.2558 124.979 47.1066 124.988 46.9576ZM125.439 44.2981L125.177 35.3701H126.98L126.718 44.2981H125.439Z" fill="#D2E4FF"/>
<path d="M129.274 46.9576C129.265 46.809 129.287 46.6602 129.338 46.5204C129.39 46.3807 129.469 46.2528 129.572 46.1449C129.674 46.0369 129.798 45.9511 129.935 45.8928C130.072 45.8344 130.22 45.8048 130.369 45.8056C130.675 45.8056 130.968 45.927 131.185 46.143C131.401 46.3591 131.523 46.6521 131.523 46.9576C131.523 47.2631 131.401 47.5562 131.185 47.7722C130.968 47.9882 130.675 48.1096 130.369 48.1096C130.22 48.1105 130.072 48.0808 129.935 48.0225C129.798 47.9641 129.674 47.8783 129.572 47.7704C129.469 47.6624 129.39 47.5346 129.338 47.3948C129.287 47.255 129.265 47.1062 129.274 46.9576ZM129.724 44.2981L129.477 35.3701H131.279L131.018 44.2981H129.724Z" fill="#D2E4FF"/>
<path d="M133.555 46.9576C133.546 46.8086 133.569 46.6595 133.62 46.5194C133.672 46.3793 133.751 46.2512 133.854 46.1432C133.958 46.0352 134.082 45.9495 134.219 45.8914C134.357 45.8333 134.505 45.8041 134.655 45.8056C134.961 45.8056 135.254 45.927 135.471 46.143C135.687 46.3591 135.808 46.6521 135.808 46.9576C135.808 47.2631 135.687 47.5562 135.471 47.7722C135.254 47.9882 134.961 48.1096 134.655 48.1096C134.505 48.1111 134.357 48.0819 134.219 48.0238C134.082 47.9657 133.958 47.88 133.854 47.772C133.751 47.664 133.672 47.536 133.62 47.3959C133.569 47.2558 133.546 47.1066 133.555 46.9576ZM134.006 44.2981L133.744 35.3701H135.547L135.29 44.2981H134.006Z" fill="#D2E4FF"/>
</svg>
