<svg width="33" height="34" viewBox="0 0 33 34" fill="none" xmlns="http://www.w3.org/2000/svg">
<rect width="33" height="34" rx="16.5" fill="#45C486"/>
<mask id="mask0_976_1001" style="mask-type:alpha" maskUnits="userSpaceOnUse" x="8" y="8" width="17" height="17">
<rect x="8" y="8" width="17" height="17" fill="#D9D9D9"/>
</mask>
<g mask="url(#mask0_976_1001)">
<path d="M19.5484 23.5837C18.9779 23.5837 18.4931 23.3771 18.0938 22.9639C17.6945 22.5507 17.4948 22.0489 17.4948 21.4587C17.4948 21.376 17.5005 21.2904 17.5119 21.2019C17.5233 21.1133 17.5404 21.0337 17.5633 20.9628L12.7374 18.0587C12.5434 18.2357 12.3266 18.3745 12.0871 18.4748C11.8475 18.5752 11.5965 18.6253 11.3341 18.6253C10.7637 18.6253 10.2788 18.4187 9.87948 18.0055C9.48017 17.5923 9.28052 17.0906 9.28052 16.5003C9.28052 15.91 9.48017 15.4083 9.87948 14.9951C10.2788 14.5819 10.7637 14.3753 11.3341 14.3753C11.5965 14.3753 11.8475 14.4255 12.0871 14.5258C12.3266 14.6262 12.5434 14.7649 12.7374 14.942L17.5633 12.0378C17.5404 11.967 17.5233 11.8873 17.5119 11.7988C17.5005 11.7102 17.4948 11.6246 17.4948 11.542C17.4948 10.9517 17.6945 10.45 18.0938 10.0368C18.4931 9.62359 18.9779 9.41699 19.5484 9.41699C20.1188 9.41699 20.6037 9.62359 21.003 10.0368C21.4023 10.45 21.6019 10.9517 21.6019 11.542C21.6019 12.1323 21.4023 12.634 21.003 13.0472C20.6037 13.4604 20.1188 13.667 19.5484 13.667C19.286 13.667 19.035 13.6168 18.7954 13.5165C18.5558 13.4161 18.339 13.2774 18.1451 13.1003L13.3192 16.0045C13.342 16.0753 13.3591 16.155 13.3705 16.2436C13.382 16.3321 13.3877 16.4177 13.3877 16.5003C13.3877 16.583 13.382 16.6686 13.3705 16.7571C13.3591 16.8456 13.342 16.9253 13.3192 16.9962L18.1451 19.9003C18.339 19.7232 18.5558 19.5845 18.7954 19.4842C19.035 19.3838 19.286 19.3337 19.5484 19.3337C20.1188 19.3337 20.6037 19.5403 21.003 19.9535C21.4023 20.3666 21.6019 20.8684 21.6019 21.4587C21.6019 22.0489 21.4023 22.5507 21.003 22.9639C20.6037 23.3771 20.1188 23.5837 19.5484 23.5837ZM19.5484 12.2503C19.7423 12.2503 19.9049 12.1824 20.0361 12.0467C20.1673 11.9109 20.2329 11.7427 20.2329 11.542C20.2329 11.3413 20.1673 11.1731 20.0361 11.0373C19.9049 10.9015 19.7423 10.8337 19.5484 10.8337C19.3544 10.8337 19.1919 10.9015 19.0607 11.0373C18.9295 11.1731 18.8639 11.3413 18.8639 11.542C18.8639 11.7427 18.9295 11.9109 19.0607 12.0467C19.1919 12.1824 19.3544 12.2503 19.5484 12.2503ZM11.3341 17.2087C11.528 17.2087 11.6906 17.1408 11.8218 17.005C11.953 16.8692 12.0186 16.701 12.0186 16.5003C12.0186 16.2996 11.953 16.1314 11.8218 15.9956C11.6906 15.8599 11.528 15.792 11.3341 15.792C11.1401 15.792 10.9776 15.8599 10.8464 15.9956C10.7152 16.1314 10.6496 16.2996 10.6496 16.5003C10.6496 16.701 10.7152 16.8692 10.8464 17.005C10.9776 17.1408 11.1401 17.2087 11.3341 17.2087ZM19.5484 22.167C19.7423 22.167 19.9049 22.0991 20.0361 21.9633C20.1673 21.8276 20.2329 21.6594 20.2329 21.4587C20.2329 21.258 20.1673 21.0897 20.0361 20.954C19.9049 20.8182 19.7423 20.7503 19.5484 20.7503C19.3544 20.7503 19.1919 20.8182 19.0607 20.954C18.9295 21.0897 18.8639 21.258 18.8639 21.4587C18.8639 21.6594 18.9295 21.8276 19.0607 21.9633C19.1919 22.0991 19.3544 22.167 19.5484 22.167Z" fill="white"/>
</g>
</svg>
