<svg width="850" height="340" viewBox="0 0 850 340" fill="none" xmlns="http://www.w3.org/2000/svg">
<path d="M23.0306 32.2786C52.7929 48.918 79.1671 72.2208 100.509 100.734C131.963 143.28 130.27 169.354 160.471 193.654C189.823 217.254 230.093 223.745 262.755 214.814C307.322 202.616 309.317 169.466 366.423 116.94C400.006 86.0773 462.981 28.1357 537.306 33.7172C574.856 36.5404 612.197 55.3433 646.907 72.8101C689.451 94.2199 695.565 105.224 718.521 110.287C745.788 116.31 787.935 112.005 848.517 58.0596" stroke="url(#paint0_linear_8_619)" stroke-opacity="0.5" stroke-width="1.5" stroke-miterlimit="10"/>
<path d="M22.2012 38.3751C49.0196 52.993 73.2008 72.9929 93.5369 97.3759C95.4815 99.7395 97.4263 102.168 99.3856 104.662C131.16 145.872 129.92 170.771 159.74 194.469C172.739 204.839 187.453 212.222 203.029 216.189C214.186 219.019 225.627 220.199 237.058 219.698C245.607 219.319 254.089 217.866 262.346 215.368C271.546 212.724 280.291 208.402 288.226 202.574C302.829 191.807 313.047 177.274 328.77 159.039C340.614 145.314 353.501 132.761 367.287 121.521C374.588 115.485 383.116 108.209 392.973 100.754C419.346 80.7527 453.095 59.0206 493.604 51.5048C507.35 48.8817 521.317 48.0012 535.241 48.8803C537.374 49.0099 539.493 49.2048 541.582 49.4323C562.272 51.6585 581.985 57.5702 602.122 65.4221C617.189 71.2214 631.439 78.4559 645.571 85.2502C651.49 88.1504 656.781 90.79 661.56 93.2667C690.424 108.274 697.925 116.326 717.636 119.841C732.613 122.509 751.986 122.029 776.568 112.497C796.725 104.696 820.589 90.6473 848.523 67.4173" stroke="url(#paint1_linear_8_619)" stroke-opacity="0.5" stroke-width="1.5" stroke-miterlimit="10"/>
<path d="M21.4301 44.5043C47.9706 58.5696 72.0026 77.8984 92.3555 101.549C94.305 103.831 96.2546 106.168 98.2041 108.558C130.372 148.447 129.613 172.14 159.024 195.284C172.054 205.789 186.816 213.315 202.46 217.428C213.682 220.276 225.198 221.413 236.693 220.807C245.255 220.316 253.731 218.671 261.936 215.905C271.091 212.948 279.788 208.453 287.729 202.574C302.916 191.48 313.69 177.42 329.238 160.391C341.138 147.466 354.175 135.912 368.152 125.905C375.453 120.554 383.791 113.996 393.547 107.502C419.541 90.192 451.233 72.0315 491.334 66.0975C505.188 63.9617 519.19 63.2577 533.162 63.9947C535.324 64.1243 537.457 64.2866 539.561 64.4978C560.601 66.5445 579.817 71.6085 600.363 78.5961C615.838 83.8735 629.956 90.9777 644.206 97.6742C650.125 100.444 655.473 102.969 660.369 105.332C689.321 119.361 697.084 126.761 716.722 129.362C731.684 131.346 750.91 130.246 775.624 120.6C795.81 112.701 819.981 98.913 848.529 76.8077" stroke="url(#paint2_linear_8_619)" stroke-opacity="0.5" stroke-width="1.5" stroke-miterlimit="10"/>
<path d="M20.5128 50.5358C46.8359 64.0683 70.7696 82.7661 91.174 105.739C93.1186 107.956 95.0778 110.205 97.0225 112.504C129.614 151.056 129.263 173.575 158.279 196.099C172.019 206.758 185.553 214.433 201.846 218.683C213.144 221.555 224.746 222.649 236.314 221.932C244.891 221.327 253.361 219.482 261.512 216.443C270.626 213.175 279.287 208.507 287.246 202.573C302.989 191.153 314.303 177.598 329.691 161.792C341.658 149.659 354.856 139.13 369.016 130.42C376.391 125.754 384.481 119.913 394.12 114.382C419.868 99.5989 449.371 85.1243 489.064 80.7394C503.028 79.0973 517.079 78.5743 531.111 79.1746C533.288 79.2879 535.494 79.4339 537.54 79.6288C558.183 81.508 578.617 85.6013 598.559 91.852C614.444 96.5912 628.445 103.63 642.869 110.147C648.788 112.819 654.181 115.214 659.208 117.463C688.232 130.497 696.272 137.212 715.822 138.95C730.783 140.281 749.907 138.513 774.708 128.752C794.938 120.853 819.372 107.163 848.535 86.1004" stroke="url(#paint3_linear_8_619)" stroke-opacity="0.5" stroke-width="1.5" stroke-miterlimit="10"/>
<path d="M19.6688 56.6161C45.7373 69.6224 69.5444 87.6649 89.9928 109.912C91.9374 112.064 93.9111 114.215 95.8411 116.432C128.782 153.713 128.942 174.911 157.548 196.93C171.596 207.704 184.677 215.591 201.262 219.939C212.625 222.839 224.304 223.884 235.934 223.04C244.55 222.34 253.037 220.3 261.147 216.981C270.199 213.428 278.815 208.62 286.793 202.671C303.09 190.908 315.018 177.907 330.189 163.177C340.891 152.802 353.552 143.731 369.924 134.919C377.358 130.905 385.274 125.766 394.753 121.213C420.4 108.892 447.568 98.2008 486.78 95.3651C500.833 94.203 514.931 93.8548 529.017 94.3221C531.223 94.4191 533.4 94.5487 535.489 94.711C556.17 96.2166 576.7 99.6784 596.858 105.059C613.181 109.26 626.977 116.25 641.548 122.539C647.393 125.113 652.932 127.427 658.076 129.528C687.158 141.65 695.475 147.598 714.966 148.455C729.927 149.118 748.919 146.714 773.822 136.856C794.052 128.842 818.778 115.396 848.541 95.4095" stroke="url(#paint4_linear_8_619)" stroke-opacity="0.5" stroke-width="1.5" stroke-miterlimit="10"/>
<path d="M18.8393 62.6964C44.6473 75.1853 68.3218 92.5723 88.8115 114.085C90.756 116.155 92.7297 118.209 94.6596 120.328C127.994 156.19 128.606 176.329 156.789 197.729C171.143 208.633 183.771 216.732 200.634 221.178C212.073 224.103 223.838 225.099 235.54 224.133C244.158 223.331 252.621 221.102 260.65 217.519C269.648 213.665 278.227 208.69 286.223 202.687C303.09 190.614 315.646 178.216 330.569 164.562C341.593 154.513 354.533 146.615 370.716 139.402C378.238 136.04 385.978 131.634 395.253 127.978C421.005 118.021 445.677 111.212 484.48 109.893C497.965 109.432 512.882 108.855 526.922 109.388C529.158 109.469 531.306 109.582 533.439 109.712C554.125 110.843 574.71 113.669 595.026 118.168C611.757 121.831 625.451 128.773 640.182 134.931C646.101 137.407 651.61 139.542 656.886 141.562C686.026 152.851 694.664 158.392 714.022 158.043C728.983 157.776 747.857 154.981 772.849 144.975C793.093 136.814 818.126 123.646 848.488 104.751" stroke="url(#paint5_linear_8_619)" stroke-opacity="0.5" stroke-width="1.5" stroke-miterlimit="10"/>
<path d="M17.9951 68.7605C43.5472 80.7445 67.0933 97.4815 87.6301 118.258C89.5745 120.247 91.5628 122.219 93.478 124.241C127.221 158.799 128.285 177.698 156.043 198.544C170.661 209.546 182.865 217.874 200.035 222.433C211.527 225.365 223.354 226.312 235.102 225.241C243.748 224.328 252.212 221.904 260.182 218.057C269.107 213.887 277.642 208.749 285.667 202.719C303.089 190.303 316.333 178.443 330.935 165.93C342.295 156.142 355.527 149.516 371.493 143.885C379.132 141.175 387.444 139.606 395.74 134.89C422.665 133.625 443.842 121.827 482.108 124.585C495.623 125.575 510.773 124.183 524.755 124.569C527.02 124.65 529.211 124.73 531.315 124.844C553.845 126.026 571.086 127.405 593.179 131.343C610.318 134.452 623.866 141.361 638.758 147.323C644.604 149.702 650.23 151.722 655.637 153.628C684.791 163.923 693.735 168.29 713.064 167.467C728.039 166.793 746.796 163.101 771.875 153.014C792.148 144.853 817.445 131.798 848.436 113.995" stroke="url(#paint6_linear_8_619)" stroke-opacity="0.5" stroke-width="1.5" stroke-miterlimit="10"/>
<path d="M17.1509 74.8407C42.4443 86.3191 65.8606 102.395 86.4487 122.415C88.4077 124.339 90.3959 126.213 92.2964 128.137C126.52 161.358 128.022 179.05 155.356 199.359C170.339 210.474 182.033 219.015 199.48 223.689C211.072 226.657 223.012 227.55 234.853 226.333C244.481 225.433 252.383 222.201 259.89 218.578C268.747 214.1 277.253 208.8 285.316 202.735C303.293 189.992 317.282 178.751 331.549 167.298C343.231 157.885 356.814 152.45 372.445 148.351C380.245 146.309 388.368 145.833 396.416 141.721C423.344 144.027 442.04 137.546 479.926 139.179C493.513 139.777 508.839 139.412 522.777 139.75C525.057 139.749 527.277 139.862 529.367 139.943C552.276 140.896 569.02 141.379 591.507 144.649C609.041 147.219 622.457 154.079 637.509 159.862C643.355 162.143 649.025 164.033 654.563 165.824C683.79 175.239 693.011 178.856 712.266 177.104C727.241 175.777 745.866 171.449 771.047 161.247C791.335 153.086 816.924 140.162 848.529 123.451" stroke="url(#paint7_linear_8_619)" stroke-opacity="0.5" stroke-width="1.5" stroke-miterlimit="10"/>
<path d="M16.3214 80.9048C41.3444 91.8952 64.6233 107.303 85.2673 126.539C87.2263 128.398 89.229 130.191 91.2026 132C125.776 163.884 127.76 180.354 154.626 200.108C169.915 211.338 181.156 220.107 198.896 224.862C210.543 227.864 222.551 228.719 234.444 227.393C244.203 226.395 251.974 222.902 259.437 219.067C268.653 214.335 276.232 208.787 284.775 202.75C303.321 189.698 320.103 181.848 331.973 168.667C345.424 162.253 357.996 150.018 373.324 152.833C381.302 154.298 389.248 152.045 397.019 148.552C423.964 154.413 440.281 150.705 477.685 153.789C491.331 154.909 506.906 154.643 520.727 154.882C523.05 154.881 525.271 154.88 527.375 155.026C550.635 155.751 566.895 155.289 589.762 157.857C607.748 159.856 620.99 166.684 636.188 172.288C642.033 174.471 647.762 176.246 653.417 177.907C682.643 186.458 692.229 189.21 711.41 186.643C726.399 184.631 744.907 179.667 770.161 169.351C790.478 161.092 816.286 148.395 848.564 132.777" stroke="url(#paint8_linear_8_619)" stroke-opacity="0.5" stroke-width="1.5" stroke-miterlimit="10"/>
<path d="M15.4775 86.9688C40.2445 97.4942 63.3919 112.264 84.0861 130.745C86.0451 132.522 88.0477 134.152 90.0359 135.929C125.12 166.476 127.424 181.723 153.895 200.939C169.506 212.267 180.28 221.265 198.298 226.134C210.018 229.15 222.107 229.955 234.065 228.518C243.955 227.422 251.594 223.619 259.028 219.621C268.068 214.725 275.559 208.917 284.278 202.766C303.379 189.354 321.038 182.433 332.47 170.019C346.39 164.306 359.751 152.853 374.232 157.3C382.152 159.726 390.143 158.272 397.607 155.383C424.569 164.799 438.521 163.896 475.429 168.4C489.135 170.025 504.826 169.889 518.677 170.014L525.353 170.012C548.993 170.492 564.8 169.133 588.017 170.967C606.427 172.412 619.507 179.223 634.866 184.632C640.712 186.717 646.484 188.362 652.27 189.892C681.496 197.611 691.432 199.516 710.54 196.1C725.528 193.404 743.918 187.803 769.26 177.39C789.592 169.049 815.751 156.564 848.585 142.022" stroke="url(#paint9_linear_8_619)" stroke-opacity="0.5" stroke-width="1.5" stroke-miterlimit="10"/>
<path d="M14.6333 93.0164C39.1147 103.094 62.1074 117.207 82.8463 134.886C84.8197 136.516 86.8224 138.146 88.8104 139.776C124.274 168.97 127.073 182.993 153.136 201.721C169.068 213.131 179.447 222.373 197.684 227.34C209.47 230.395 221.639 231.157 233.656 229.594C243.692 228.4 251.185 224.385 258.575 220.126C267.44 214.969 274.858 209.014 283.751 202.765C303.422 189.027 321.944 183.002 332.85 171.371C347.253 166.342 360.605 164.544 375.023 161.75C383.294 163.508 390.921 164.467 398.137 162.198C425.101 175.234 436.659 177.089 473.101 182.962C486.865 185.191 502.761 185.299 516.553 185.115C518.92 185.114 521.184 185.113 523.274 185.112C547.292 184.761 562.574 183.059 586.199 184.192C605.047 185.082 617.952 191.861 633.486 197.09C639.331 199.061 645.176 200.608 651.021 201.976C680.246 208.863 690.474 209.887 709.552 205.623C724.555 202.258 742.813 196.022 768.272 185.494C788.618 177.088 815.011 164.798 848.503 151.332" stroke="url(#paint10_linear_8_619)" stroke-opacity="0.5" stroke-width="1.5" stroke-miterlimit="10"/>
<path d="M13.8038 99.0804C38.0436 108.705 60.9216 122.163 81.738 139.042C83.6968 140.673 85.714 142.188 87.702 143.721C123.632 171.545 126.84 184.362 152.434 202.52C168.688 214.06 178.527 223.515 197.115 228.596C209.002 231.686 221.286 232.394 233.393 230.686C243.619 229.394 250.995 225.135 258.224 220.664C266.986 215.295 274.288 209.144 283.327 202.715C303.538 188.65 322.952 183.522 333.362 172.674C348.232 168.346 361.79 167.771 375.946 166.134C384.32 168.741 391.831 170.597 398.784 168.931C425.75 185.474 434.929 190.232 470.889 197.476C484.712 200.259 500.798 200.449 514.546 200.167C516.942 200.166 519.207 200.165 521.311 200.164C545.68 199.552 560.493 196.888 584.498 197.352C603.754 197.687 616.513 204.45 632.208 209.484C638.053 211.373 643.898 212.741 649.962 214.059C679.187 220.148 689.823 220.274 708.769 215.163C723.771 211.113 741.912 204.257 767.459 193.614C787.82 185.143 814.563 173.048 848.611 160.674" stroke="url(#paint11_linear_8_619)" stroke-opacity="0.5" stroke-width="1.5" stroke-miterlimit="10"/>
<path d="M12.9596 105.128C36.9388 114.324 59.6814 127.133 80.5566 143.199C82.53 144.83 84.5471 146.166 86.535 147.617C122.946 174.055 126.563 185.666 151.704 203.318C168.279 214.94 177.651 224.623 196.53 229.819C208.461 232.929 220.798 233.593 232.94 231.779C243.166 230.372 250.585 225.868 257.771 221.169C266.299 215.588 273.542 209.242 282.801 202.796C303.581 188.388 323.858 184.173 333.786 174.091C349.139 170.448 362.844 170.998 376.782 170.699C385.243 174.137 392.652 176.906 399.329 175.844C426.312 195.958 433.096 203.556 468.59 212.169C482.472 215.524 498.748 215.55 512.423 215.415C514.848 215.414 517.127 215.413 519.231 215.412C543.98 214.539 558.311 211.663 582.695 210.724C602.359 209.967 614.973 217.236 630.828 222.122C636.731 223.896 642.717 225.31 648.757 226.356C677.981 231.661 688.968 230.874 707.84 224.915C722.856 220.18 740.866 212.704 766.5 201.947C786.948 193.41 813.911 181.495 848.574 170.213" stroke="url(#paint12_linear_8_619)" stroke-opacity="0.5" stroke-width="1.5" stroke-miterlimit="10"/>
<path d="M12.1135 107.688C35.8353 116.491 58.4418 128.673 79.3732 143.932C81.3465 145.399 83.3782 146.736 85.3807 148.088C122.259 173.14 126.312 183.544 150.971 200.674C167.868 212.41 176.772 222.322 195.929 227.615C207.933 230.756 220.354 231.376 232.558 229.444C242.989 227.924 250.247 223.192 257.388 218.264C265.698 212.357 272.823 205.831 282.301 199.304C303.637 184.619 324.805 181.235 334.237 171.952C350.058 168.995 363.924 170.718 377.644 171.659C386.194 175.945 393.486 179.611 399.9 179.169C426.9 202.838 431.305 213.404 466.303 223.176C480.258 227.101 496.724 227.177 510.37 226.927L517.207 226.778C542.336 226.279 556.169 221.218 580.932 220.231C601.05 219.408 613.473 226.171 629.489 230.813C635.457 232.495 641.507 233.794 647.608 234.704C676.758 239.226 688.168 237.494 706.952 230.702C721.983 225.282 739.875 217.187 765.596 206.316C786.045 197.714 813.314 185.994 848.591 175.805" stroke="url(#paint13_linear_8_619)" stroke-opacity="0.5" stroke-width="1.5" stroke-miterlimit="10"/>
<path d="M11.2376 108.715C34.6935 117.07 57.1591 128.561 78.1453 142.937C80.1332 144.338 82.1648 145.577 84.1672 146.832C121.585 170.53 125.988 179.791 150.238 196.351C167.471 208.168 175.893 218.324 195.342 223.731C207.423 226.877 219.928 227.426 232.19 225.348C242.738 223.714 249.908 218.819 256.947 213.597C265.11 207.609 272.192 200.855 281.772 194.214C303.677 179.154 325.708 176.716 334.658 168.216C350.962 165.943 365.499 166.296 378.491 171.037C387.799 174.442 394.32 180.816 400.412 180.814C427.415 208.038 429.425 221.573 463.956 232.666C477.956 237.194 494.641 237.302 508.214 236.954C510.697 236.954 513.006 236.822 515.095 236.756C540.604 235.997 553.939 230.007 579.096 228.301C599.623 226.907 611.9 233.671 628.076 238.068C634.101 239.679 640.212 240.864 646.37 241.616C675.506 245.388 687.28 242.693 705.99 235.07C721.02 228.949 738.795 220.234 764.604 209.266C785.053 200.599 812.629 189.075 848.521 179.88" stroke="url(#paint14_linear_8_619)" stroke-opacity="0.5" stroke-width="1.5" stroke-miterlimit="10"/>
<path d="M10.4346 109.709C33.6341 117.669 55.9633 128.502 77.0049 142.006C79.0074 143.327 81.0536 144.467 83.0413 145.641C120.925 167.87 125.723 175.892 149.504 192.028C167.044 203.926 174.999 214.327 194.814 219.831C206.957 223.071 219.55 223.62 231.881 221.448C242.574 219.7 249.642 214.511 256.593 209.143C264.595 202.96 271.589 195.977 281.417 189.239C303.863 173.852 326.771 172.327 335.254 164.594C352.011 162.957 366.842 164.762 379.469 170.53C388.954 174.864 395.284 181.939 401.158 182.736C428.163 213.531 427.779 230.018 461.858 242.367C475.917 247.498 492.762 247.623 506.32 247.242L513.245 246.979C539.119 245.975 551.972 239.039 577.523 236.649C598.488 234.668 610.589 241.529 626.941 245.681C633.024 247.235 639.195 248.323 645.41 248.936C674.516 251.974 686.669 248.3 705.306 239.846C720.336 233.04 737.979 223.706 763.89 212.623C791.317 200.429 819.665 190.988 848.596 184.412" stroke="url(#paint15_linear_8_619)" stroke-opacity="0.5" stroke-width="1.5" stroke-miterlimit="10"/>
<path d="M9.58723 110.036C32.5353 117.637 54.7283 127.836 75.8203 140.473C77.8373 141.712 79.8834 142.771 81.8711 143.847C120.266 164.657 125.442 171.553 148.77 187.134C166.661 199.113 174.119 209.759 194.153 215.378C206.373 218.631 219.054 219.103 231.439 216.766C242.249 214.903 249.229 209.486 256.107 203.89C263.934 197.511 270.84 190.317 280.814 183.481C303.83 167.768 327.556 167.156 335.602 160.19C352.841 159.303 367.906 162.461 380.227 169.224C389.873 174.52 396.029 182.41 401.626 183.794C428.648 218.144 425.855 237.6 459.468 251.204C473.585 256.939 490.635 257.063 504.134 256.552C506.662 256.453 509.014 256.322 511.103 256.223C537.401 254.958 549.712 247.109 575.628 244.018C597.001 241.466 608.957 248.261 625.469 252.283C631.613 253.745 637.844 254.702 644.113 255.146C673.204 257.467 685.722 252.783 704.285 243.513C719.314 236.006 736.84 226.068 762.839 214.856C790.508 202.596 819.25 193.595 848.597 187.998" stroke="url(#paint16_linear_8_619)" stroke-opacity="0.5" stroke-width="1.5" stroke-miterlimit="10"/>
<path d="M8.73925 109.107C31.4402 116.344 53.4981 125.894 74.635 137.636C76.6519 138.793 78.7126 139.771 80.7002 140.765C119.62 160.106 125.234 165.779 148.035 180.936C166.262 192.996 173.238 203.903 193.565 209.603C205.852 212.894 218.615 213.322 231.055 210.861C241.997 208.867 248.889 203.239 255.679 197.415C263.345 190.889 270.163 183.434 280.313 176.5C303.883 160.462 328.516 160.73 336.051 154.563C353.758 154.36 369.029 158.953 381.087 166.711C390.851 173.002 396.876 181.642 402.21 183.63C429.234 221.549 424.018 243.957 457.193 258.8C471.34 265.155 488.609 265.311 502.064 264.687C504.607 264.572 506.973 264.424 509.062 264.309C535.696 262.799 547.524 253.989 573.82 250.212C595.616 247.073 607.426 253.885 624.069 257.711C630.281 259.086 636.577 259.929 642.903 260.231C671.979 261.851 684.846 256.139 703.336 246.054C718.365 237.895 735.788 227.289 761.874 215.979C789.745 203.596 818.845 194.984 848.554 190.328" stroke="url(#paint17_linear_8_619)" stroke-opacity="0.5" stroke-width="1.5" stroke-miterlimit="10"/>
<path d="M7.90601 108.178C30.358 115.081 52.2767 123.989 73.4498 134.815C75.4813 135.89 77.5419 136.754 79.5295 137.666C118.988 155.589 124.835 160.071 147.301 174.739C165.849 186.864 172.358 198.031 192.962 203.845C205.321 207.184 218.173 207.563 230.671 204.956C241.744 202.816 248.549 197.008 255.266 190.94C262.771 184.17 269.486 176.552 279.811 169.52C303.951 153.204 329.476 154.304 336.5 148.92C352.628 149.128 368.378 154.419 381.933 164.182C391.799 171.484 397.722 180.858 402.779 183.465C429.82 224.939 422.167 250.315 454.918 266.397C469.095 273.387 486.583 273.511 499.98 272.821C502.566 272.69 504.933 272.526 507.037 272.378C534.02 270.575 545.41 260.95 572.085 256.406C594.275 252.696 605.968 259.508 622.772 263.138C628.617 264.392 634.782 264.585 641.767 265.3C670.726 268.273 684.059 259.495 702.475 248.579C717.503 239.67 734.809 228.51 760.983 217.086C789.083 204.58 818.561 196.342 848.628 192.593" stroke="url(#paint18_linear_8_619)" stroke-opacity="0.5" stroke-width="1.5" stroke-miterlimit="10"/>
<path d="M7.05822 107.249C29.2722 113.826 51.0583 122.088 72.2647 131.978C74.3107 132.956 76.3713 133.754 78.3734 134.568C118.328 150.86 124.627 154.363 146.566 168.541C165.465 180.748 171.419 192.16 192.374 198.088C204.826 201.47 217.786 201.799 230.361 199.052C241.55 196.765 248.267 190.761 254.911 184.465C262.211 177.499 268.868 169.67 279.368 162.54C304.078 145.833 330.494 147.845 337.007 143.293C353.567 144.257 369.501 150.68 382.793 161.751C392.718 170.048 398.569 180.172 403.349 183.382C430.407 228.41 420.3 256.754 452.629 274.092C466.85 281.701 484.543 281.809 497.925 281.038C500.526 280.89 502.922 280.693 505.011 280.546C532.374 278.465 543.266 267.845 570.335 262.682C592.964 258.385 604.437 265.246 621.475 268.648C627.836 269.633 634.24 270.24 640.659 270.467C669.661 272.559 683.286 262.934 701.644 251.203C716.657 241.593 733.86 229.829 760.063 218.291C788.372 205.688 818.206 197.862 848.585 195.071" stroke="url(#paint19_linear_8_619)" stroke-opacity="0.5" stroke-width="1.5" stroke-miterlimit="10"/>
<path d="M6.21024 106.321C28.1962 112.588 49.8568 120.201 71.0939 129.125C73.1399 130.021 75.2004 130.754 77.2025 131.454C117.682 146.31 124.36 148.623 145.89 162.41C165.066 174.6 170.538 186.289 191.771 192.314C204.275 195.745 217.305 196.029 229.918 193.148C241.239 190.714 247.883 184.515 254.424 177.99C261.608 170.846 268.133 162.788 278.823 155.561C304.073 138.528 331.41 141.485 337.398 137.602C354.436 139.283 370.594 146.807 383.653 159.141C393.608 168.465 399.401 179.306 403.918 183.12C430.978 231.718 418.419 263.128 450.354 281.607C464.605 289.852 482.502 289.944 495.826 289.091C498.456 288.927 500.866 288.714 502.955 288.534C530.713 286.175 541.093 274.643 568.556 268.795C591.608 263.895 602.921 270.804 620.09 273.994C626.51 274.925 632.975 275.418 639.449 275.47C668.495 276.683 682.411 266.209 700.695 253.647C715.722 243.352 732.822 230.969 759.113 219.382C787.649 206.667 817.856 199.237 848.541 197.385" stroke="url(#paint20_linear_8_619)" stroke-opacity="0.5" stroke-width="1.5" stroke-miterlimit="10"/>
<path d="M5.39146 105.392C30.4231 112.475 52.8835 119.691 69.9232 126.304C71.9983 127.119 74.0588 127.738 76.0462 128.389C117.065 141.679 124.108 142.916 145.111 156.083C164.682 168.403 169.731 180.353 191.197 186.492C203.77 189.964 216.885 190.199 229.549 187.179C241.001 184.582 247.572 178.221 254.025 171.451C261.033 164.111 267.471 155.842 278.336 148.516C304.155 131.157 332.384 135.011 337.861 131.976C355.367 134.393 371.721 143.004 384.527 156.548C394.498 166.898 400.89 177.821 404.516 182.891C438.15 230.05 416.538 269.486 448.094 289.139C462.359 298.036 480.505 298.095 493.771 297.16C496.429 296.98 498.84 296.734 500.944 296.538C529.037 293.902 538.92 281.457 566.792 274.941C590.267 269.437 601.419 276.379 618.763 279.34C625.228 280.408 631.768 280.793 638.297 280.491C667.356 279.371 681.594 269.485 699.819 256.123C714.831 245.111 731.799 232.126 758.236 220.376C787.017 207.555 817.604 200.517 848.586 199.585" stroke="url(#paint21_linear_8_619)" stroke-opacity="0.5" stroke-width="1.5" stroke-miterlimit="10"/>
<path d="M4.52898 104.463C29.8381 111.334 52.1519 117.848 68.7233 123.468C70.8131 124.184 72.8734 124.721 74.8608 125.291C116.449 137.016 123.827 137.192 144.362 149.936C164.284 162.32 168.836 174.564 190.579 180.801C203.231 184.319 216.441 184.504 229.165 181.341C240.734 178.565 247.217 172.04 253.582 165.026C260.444 157.491 266.721 149.009 277.82 141.586C304.194 123.885 333.227 128.652 338.31 126.383C358.386 129.637 374.173 141.306 385.372 154.085C395.329 165.495 401.634 177.282 405.071 182.775C437.612 234.729 414.628 275.957 445.79 296.801C460.071 306.334 478.465 306.36 491.672 305.344C494.36 305.131 496.799 304.885 498.889 304.673C527.362 301.743 536.762 288.353 565.013 281.184C588.896 275.093 599.888 282.084 617.392 284.817C623.923 285.802 630.525 286.068 637.102 285.609C666.175 283.853 680.748 272.891 698.914 258.698C713.911 246.985 730.777 233.396 757.33 221.532C777.91 212.345 807.825 202.371 848.601 201.932" stroke="url(#paint22_linear_8_619)" stroke-opacity="0.5" stroke-width="1.5" stroke-miterlimit="10"/>
<path d="M3.681 103.534C29.2529 110.242 51.4201 115.974 67.538 120.647C69.6423 121.25 71.7026 121.705 73.6899 122.275C115.759 132.32 123.56 131.453 143.628 143.74C163.695 156.026 167.955 168.694 189.991 175.028C202.709 178.606 216.007 178.746 228.781 175.438C240.467 172.466 246.891 165.811 253.169 158.569C259.87 150.854 266.103 142.145 277.318 134.624C304.262 116.678 334.172 122.26 338.759 120.774C359.318 124.712 375.12 137.751 386.232 151.573C396.161 163.929 402.32 176.661 405.64 182.546C436.928 239.195 412.703 282.332 443.516 304.332C457.796 314.534 476.424 314.511 489.602 313.413C492.304 313.184 494.759 312.906 496.906 312.677C525.744 309.405 534.662 295.183 563.292 287.314C587.599 280.636 598.444 287.676 616.11 290.18C622.707 291.088 629.37 291.239 635.994 290.629C665.081 288.221 679.961 276.182 698.082 261.175C713.064 248.761 729.827 234.569 756.497 222.591C777.106 213.338 807.298 203.544 848.689 204.23" stroke="url(#paint23_linear_8_619)" stroke-opacity="0.5" stroke-width="1.5" stroke-miterlimit="10"/>
<path d="M2.84772 102.605C28.6679 109.118 50.6884 114.099 66.3528 117.843C68.4716 118.348 70.5319 118.738 72.5191 119.129C115.098 127.608 123.293 125.713 142.893 137.56C163.516 150.009 167.06 162.824 189.388 169.272C202.178 172.912 215.571 173.002 228.397 169.535C240.2 166.351 246.565 159.566 252.755 152.112C259.295 144.185 265.426 135.28 276.831 127.645C304.315 109.292 335.335 113.471 339.208 115.149C359.2 123.767 376.052 134.163 387.092 149.062C396.977 162.412 403.079 176.024 406.224 182.463C436.142 243.678 410.764 288.868 441.241 312.027C455.522 322.88 474.398 322.792 487.517 321.629C490.264 321.384 492.718 321.089 494.822 320.844C524.04 317.344 532.445 302.144 561.47 293.59C586.185 286.308 596.87 293.413 614.71 295.689C621.374 296.518 628.099 296.554 634.77 295.796C663.871 292.752 679.071 279.621 697.119 263.799C712.1 250.749 728.761 235.873 755.533 223.781C776.156 214.463 806.656 204.88 848.646 206.642" stroke="url(#paint24_linear_8_619)" stroke-opacity="0.5" stroke-width="1.5" stroke-miterlimit="10"/>
<path d="M2 101.677C28.083 108.075 49.9423 112.175 65.1677 114.974C67.301 115.365 69.3613 115.69 71.363 115.999C114.438 122.864 123.041 119.974 142.159 131.348C163.205 143.895 166.136 156.938 188.8 163.451C201.664 167.138 215.149 167.178 228.028 163.567C239.918 160.155 246.24 153.272 252.327 145.623C258.721 137.468 264.749 128.384 276.33 120.667C304.384 101.988 336.063 109.036 339.657 109.507C361.574 112.418 376.97 130.559 387.894 146.534C395.283 157.678 401.599 169.661 406.735 182.283C435.268 247.949 408.767 295.308 438.967 319.623C453.234 331.129 472.373 331.024 485.448 329.764C488.209 329.502 490.692 329.175 492.752 328.913C522.32 325.071 530.243 308.975 559.676 299.784C584.786 291.883 595.339 299.103 613.34 301.118C620.073 301.866 626.859 301.781 633.574 300.865C662.704 297.186 678.182 282.914 696.2 266.325C711.151 252.476 727.709 237.095 754.613 224.905C775.265 215.522 806.028 206.119 848.647 208.973" stroke="url(#paint25_linear_8_619)" stroke-opacity="0.5" stroke-width="1.5" stroke-miterlimit="10"/>
<path d="M1.15199 100.748C27.454 106.868 49.1812 110.219 63.9824 112.138C112.959 118.478 121.927 113.746 141.424 125.152C162.763 137.65 165.299 151.084 188.197 157.744C201.133 161.493 214.713 161.488 227.644 157.73C252.155 150.22 252.813 128.991 275.828 113.689C304.437 94.667 336.979 103.019 340.106 103.882C381.781 115.28 401.245 166.322 407.363 182.119C434.481 252.089 406.856 301.747 436.677 327.22C453.985 342.002 478.878 338.618 490.741 336.983C520.674 332.895 528.114 315.871 557.926 305.979C591.522 294.814 598.94 310.855 632.437 305.951C685.875 298.056 694.422 253.101 753.648 226.013C774.315 216.565 805.37 207.357 848.603 211.303" stroke="url(#paint26_linear_8_619)" stroke-opacity="0.5" stroke-width="1.5" stroke-miterlimit="10"/>
<path d="M1.94215 102.785C27.7766 108.906 49.1388 112.55 63.9401 114.566C111.617 121.266 120.921 116.828 140.301 128.25C161.245 140.634 164.044 153.677 186.373 160.386C199.039 164.115 212.332 164.301 225.075 160.926C249.265 154.542 250.186 133.834 272.852 119.119C300.847 100.815 332.41 108.417 336.062 109.084C370.239 115.251 389.111 152.827 398.401 172.878C400.303 176.97 401.679 180.491 402.791 183.034C430.593 249.271 404.414 296.988 433.795 321.043C451.337 335.369 476.434 331.756 488.794 330.202C500.119 328.81 511.096 324.986 521.118 318.94C531.341 313.213 540.907 306.753 556.639 302.459C561.459 301.153 565.754 300.434 569.611 299.813C592.984 296.037 602.005 305.312 630.169 299.709C641.065 297.569 651.555 293.381 661.193 287.322C687.349 271.007 703.693 241.652 744.192 220.212C746.568 218.951 749.051 217.721 751.641 216.525C772.498 206.832 804.02 197.184 847.911 200.869" stroke="url(#paint27_linear_8_619)" stroke-opacity="0.5" stroke-width="1.5" stroke-miterlimit="10"/>
<path d="M2.73208 104.822C28.0406 110.944 49.0961 114.735 63.9122 116.979C110.26 124.022 119.856 119.91 139.178 131.365C159.742 143.488 162.789 156.417 184.489 163.012C196.895 166.731 209.913 167.118 222.476 164.139C246.302 158.799 247.56 138.759 269.86 124.533C297.257 107.06 327.986 112.674 331.99 114.287C363.614 126.911 384.145 155.437 393.712 174.331C395.658 178.179 397.004 181.553 398.102 183.933C426.544 246.518 401.912 292.181 430.826 314.867C448.513 328.719 473.888 324.895 486.744 323.406C498.159 322.094 509.283 318.587 519.624 313.04C530.009 307.867 539.721 302.271 555.264 298.955C560.099 297.91 564.423 297.517 568.28 296.896C591.58 293.121 600.205 300.439 627.799 293.45C638.569 290.676 648.88 286.028 658.354 279.677C683.531 263.363 700.693 232.98 742.01 210.822C744.42 209.55 746.932 208.277 749.546 207.037C770.578 197.099 802.567 187.011 847.13 190.418" stroke="url(#paint28_linear_8_619)" stroke-opacity="0.5" stroke-width="1.5" stroke-miterlimit="10"/>
<path d="M3.52224 106.86C28.3048 112.965 49.0391 116.984 63.8407 119.474C108.874 126.81 118.791 123.073 138.026 134.528C158.195 146.456 161.505 159.14 182.68 165.703C194.819 169.39 207.55 169.943 219.907 167.32C243.28 162.99 244.948 143.619 266.883 129.947C293.682 113.241 323.431 117.502 327.946 119.457C353.058 130.677 374.413 150.355 389.038 175.752C391.028 179.355 392.359 182.583 393.427 184.816C422.481 243.618 399.426 287.406 427.827 308.723C445.718 322.119 471.327 318.049 484.68 316.658C496.187 315.401 507.455 312.203 518.101 307.173C528.676 302.554 538.549 297.838 553.859 295.468C558.738 294.717 563.078 294.633 566.934 294.012C590.206 290.221 598.361 295.631 625.37 287.224C635.994 283.799 646.125 278.7 655.457 272.081C679.655 255.653 697.707 224.406 739.754 201.465C742.179 200.159 744.72 198.86 747.378 197.565C768.585 187.399 801.057 176.87 846.277 180.016" stroke="url(#paint29_linear_8_619)" stroke-opacity="0.5" stroke-width="1.5" stroke-miterlimit="10"/>
<path d="M4.31216 108.881C28.5688 115.002 48.9965 119.234 63.8274 121.903C107.546 129.534 117.8 126.171 136.888 137.643C156.648 149.392 160.28 161.799 180.811 168.346C192.696 172.052 205.16 172.826 217.338 170.615C240.376 167.345 242.336 148.593 263.921 135.459C290.121 119.389 318.542 125.77 323.903 124.675C354.808 131.626 374.258 160.528 384.379 177.221C386.412 180.563 387.714 183.628 388.855 185.731C418.549 240.8 397.071 282.599 424.945 302.513C443.07 315.453 468.868 311.155 482.732 309.829C494.341 308.633 505.759 305.745 516.695 301.24C527.475 297.176 537.466 293.357 552.586 291.916C557.495 291.441 561.849 291.684 565.735 291.063C588.977 287.272 596.664 290.709 623.175 280.949C634.407 276.803 643.622 270.864 652.793 264.404C676.042 247.943 694.897 215.652 737.747 192.042C740.181 190.704 742.752 189.371 745.459 188.044C766.856 177.617 799.794 166.647 845.672 169.532" stroke="url(#paint30_linear_8_619)" stroke-opacity="0.5" stroke-width="1.5" stroke-miterlimit="10"/>
<path d="M5.08783 110.918C28.7747 117.024 48.9395 121.468 63.8436 124.234C106.218 132.143 116.735 129.236 135.823 140.643C155.175 152.246 159.025 164.359 179.045 170.874C190.653 174.578 202.825 175.54 214.783 173.698C237.383 171.276 239.739 153.355 260.959 140.776C286.546 125.618 313.929 131.429 319.889 129.845C349.873 136.161 369.307 163.058 379.734 178.642C381.811 181.739 383.098 184.658 384.268 186.614C414.589 237.916 394.73 277.742 422.049 296.304C440.407 308.787 466.41 304.245 480.756 303.016C495.365 301.772 505.663 298.392 515.275 295.323C526.259 291.814 536.483 286.722 551.284 288.364C555.66 288.888 560.076 288.805 564.433 288.114C587.66 284.323 594.85 285.869 620.848 274.657C631.73 269.974 640.784 263.53 650.057 256.71C672.356 240.266 692.014 206.979 735.653 182.602C738.116 181.231 740.716 179.861 743.452 178.49C765.024 167.834 798.43 156.424 844.979 159.032" stroke="url(#paint31_linear_8_619)" stroke-opacity="0.5" stroke-width="1.5" stroke-miterlimit="10"/>
<path d="M5.87775 112.972C29.0972 119.078 48.8969 123.734 63.7426 126.679C104.846 134.817 115.7 132.335 134.7 143.774C153.701 155.214 157.785 167.018 177.206 173.549C194.128 179.234 208.226 178.005 212.272 176.944C233.848 171.229 237.17 158.264 258.04 146.239C283.014 131.848 309.389 137.138 315.904 135.081C344.952 140.777 364.356 165.604 375.133 180.112C377.239 182.964 378.512 185.736 379.696 187.562C410.642 235.098 392.448 272.902 419.21 290.176C437.831 302.203 463.995 297.416 478.853 296.269C493.71 295.122 504.125 292.052 513.913 289.456C525.087 286.5 535.662 282.078 550.04 284.893C554.379 285.787 558.819 285.901 563.19 285.231C586.388 281.439 593.094 281.094 618.565 268.448C629.111 263.226 637.96 256.26 647.247 249.147C668.611 232.833 689.086 198.42 733.499 173.276C735.982 171.873 738.611 170.47 741.386 169.066C763.148 158.166 797.021 146.315 844.228 148.646" stroke="url(#paint32_linear_8_619)" stroke-opacity="0.5" stroke-width="1.5" stroke-miterlimit="10"/>
<path d="M6.66787 114.96C29.3614 121.115 48.8398 126 63.7003 129.06C103.489 137.394 114.664 135.384 133.577 146.824C152.14 158.068 156.53 169.644 175.381 176.159C191.836 181.844 205.54 181.137 209.645 180.125C230.797 174.866 234.471 163.125 255.005 151.654C279.366 138.013 304.674 142.814 311.802 140.218C339.929 145.279 359.259 167.921 370.401 181.5C372.045 183.709 373.588 186.011 375.022 188.396C406.564 232.166 390.078 267.931 416.197 283.934C435.095 295.488 461.419 290.44 476.774 289.407C491.544 288.39 502.398 285.598 512.375 283.491C523.755 281.089 534.681 277.449 548.621 281.308C552.937 282.582 557.434 282.902 561.858 282.249C585.042 278.441 591.25 276.238 616.21 262.123C626.433 256.364 635.048 248.908 644.408 241.437C664.852 225.123 686.13 189.731 731.317 163.82C733.819 162.384 736.477 160.948 739.291 159.512C761.199 148.367 795.569 136.075 843.447 138.145" stroke="url(#paint33_linear_8_619)" stroke-opacity="0.5" stroke-width="1.5" stroke-miterlimit="10"/>
<path d="M7.45779 116.965C29.6253 123.088 48.7825 128.135 63.6724 131.456C102.132 140.019 113.629 138.466 132.527 149.906C150.695 160.971 155.348 172.253 173.615 178.737C189.69 184.422 202.927 184.237 207.148 183.274C227.892 178.521 231.975 167.953 252.101 157.02C275.849 144.145 300.177 148.441 307.831 145.405C335.023 149.83 354.249 170.451 365.814 182.888C367.473 184.915 369.031 187.043 370.479 189.262C402.647 229.25 387.869 262.945 413.344 277.709C432.52 288.806 458.99 283.529 474.841 282.578C489.743 281.659 500.845 279.16 510.998 277.542C523.066 275.685 535.31 275.751 547.363 277.74C552.506 278.472 556.831 279.905 560.644 279.366C583.799 275.541 589.509 271.512 613.956 255.914C623.799 249.632 632.253 241.639 641.701 233.841C661.253 217.657 683.291 181.139 729.31 154.461C731.822 153.009 734.524 151.524 737.386 150.039C759.498 138.616 794.35 125.917 842.842 127.725" stroke="url(#paint34_linear_8_619)" stroke-opacity="0.5" stroke-width="1.5" stroke-miterlimit="10"/>
<path d="M8.3217 119.769C29.9633 125.876 48.8138 131.168 63.7038 134.636C100.79 143.379 112.609 142.282 131.332 153.771C149.12 164.657 154.021 175.663 171.718 182.13C187.267 187.815 200.153 188.136 204.492 187.238C224.856 183.039 229.247 173.58 249.067 163.201C272.187 151.093 295.507 154.884 303.715 151.375C330.016 155.165 349.021 173.633 361.068 185.141C362.742 186.982 364.319 188.931 365.79 190.977C398.468 227.182 385.544 258.789 410.346 272.331C429.828 282.972 456.415 277.466 472.778 276.596C487.782 275.791 499.147 273.586 509.476 272.457C521.251 271.164 532.224 272.253 546.003 275.036C551.219 276.094 555.53 277.805 559.329 277.183C582.454 273.359 587.681 267.503 611.615 250.388C621.108 243.585 629.357 235.086 638.877 226.929C657.553 210.909 680.35 173.265 727.084 145.803C729.625 144.302 732.342 142.801 735.248 141.267C757.536 129.648 792.811 116.475 842.019 118.006" stroke="url(#paint35_linear_8_619)" stroke-opacity="0.5" stroke-width="1.5" stroke-miterlimit="10"/>
<path d="M9.0428 126.831C30.1584 132.938 48.6876 138.394 63.5923 142.09C99.4368 150.996 111.577 150.437 130.213 161.845C147.606 172.552 152.77 183.296 169.897 189.73C184.979 195.416 197.456 196.243 201.926 195.409C221.911 191.798 226.624 183.415 246.093 173.591C268.585 162.168 290.897 165.552 299.675 161.537C325.011 164.789 342.424 183.633 356.411 191.569C358.268 193.786 359.877 195.579 361.163 196.85C394.393 229.255 383.323 258.806 407.423 271.125C427.227 281.277 453.93 275.543 470.79 274.77C485.896 274.08 497.525 272.168 508.029 271.495C520.009 270.757 531.187 272.922 544.63 276.455C549.92 277.839 554.217 279.827 558.001 279.19C581.111 275.365 585.84 267.765 609.248 249.069C618.404 241.776 626.448 232.756 636.041 224.224C653.855 208.384 677.396 169.582 724.904 141.354C727.465 139.842 730.216 138.297 733.156 136.72C755.633 124.938 791.419 111.325 841.241 112.66" stroke="url(#paint36_linear_8_619)" stroke-opacity="0.5" stroke-width="1.5" stroke-miterlimit="10"/>
<path d="M9.79273 133.192C30.4262 139.299 48.634 144.935 63.5535 148.826C98.0977 157.88 110.619 157.875 129.093 169.347C146.092 179.859 151.519 190.341 168.062 196.76C182.675 202.429 194.744 203.696 199.361 202.993C218.98 200.002 224.001 192.679 243.178 183.41C265.086 172.803 286.346 175.616 295.693 171.128C320.094 173.663 337.33 190.794 351.799 197.392C353.316 199.079 354.922 200.663 356.609 202.136C390.347 230.773 381.175 258.106 404.559 269.332C424.698 278.994 451.489 273.032 468.845 272.373C484.069 271.781 495.96 270.162 506.625 270.011C518.81 269.827 530.208 273.101 543.36 277.352C548.709 279.078 553.005 281.327 556.789 280.608C579.856 276.767 584.116 267.357 606.997 247.145C615.758 239.364 623.655 229.838 633.278 220.931C650.23 205.304 674.5 165.312 722.782 136.302C725.353 134.67 728.142 133.169 731.122 131.57C753.774 119.446 789.983 105.458 840.52 106.401" stroke="url(#paint37_linear_8_619)" stroke-opacity="0.5" stroke-width="1.5" stroke-miterlimit="10"/>
<path d="M10.6156 139.553C30.7084 145.66 48.6096 151.475 63.5146 155.595C96.7585 164.746 109.513 165.28 127.973 176.768C144.577 187.1 150.267 197.322 166.24 203.708C180.416 209.377 192.046 209.845 196.794 210.512C216.008 213.244 221.378 201.861 240.146 193.163C261.397 183.371 281.677 185.63 291.594 180.653C315.074 182.552 332.105 197.906 347.127 203.167C348.659 204.689 350.281 206.094 351.981 207.372C386.214 232.226 378.969 257.356 401.694 267.474C422.154 276.63 449.047 270.473 466.915 269.895C482.256 269.417 494.396 268.108 505.237 268.43C517.626 268.8 529.215 273.215 542.09 278.2C547.511 280.268 551.779 282.762 555.563 282.141C578.615 278.284 582.406 267.113 604.731 245.336C613.214 237.066 620.863 227.019 630.587 217.737C646.648 202.338 671.692 161.14 720.748 131.282C723.348 129.715 726.157 128.084 729.175 126.387C752.003 114.019 788.694 99.5252 839.888 100.256" stroke="url(#paint38_linear_8_619)" stroke-opacity="0.5" stroke-width="1.5" stroke-miterlimit="10"/>
<path d="M11.4095 145.93C30.9764 152.102 48.5415 158.015 63.4759 162.346C95.4195 171.596 108.482 172.7 126.854 184.205C143.063 194.341 149.016 204.236 164.405 210.753C178.127 216.422 189.363 217.266 194.214 218.128C212.946 221.382 218.74 211.14 237.172 202.997C257.796 193.874 277.082 195.726 287.554 190.26C310.098 191.539 327.011 205.083 342.413 209.023C343.959 210.383 345.596 211.609 347.309 212.69C382.007 233.777 376.777 256.705 398.654 265.714C419.509 274.331 446.446 267.978 464.795 267.515C480.253 267.134 492.656 266.135 503.673 266.946C516.267 267.871 528.046 273.459 540.644 279.047C546.124 281.491 550.392 284.229 554.161 283.592C577.184 279.735 580.536 266.82 602.348 243.462C610.495 234.703 617.939 224.15 627.722 214.477C643.023 199.323 668.709 156.903 718.539 126.392C721.158 124.772 723.996 123.14 727.053 121.498C750.071 108.901 787.214 93.9674 839.08 94.4372" stroke="url(#paint39_linear_8_619)" stroke-opacity="0.5" stroke-width="1.5" stroke-miterlimit="10"/>
<path d="M12.2033 152.29C31.2004 158.381 48.4881 164.538 63.4372 169.098C94.1244 178.413 107.45 180.137 125.735 191.625C141.564 201.582 147.765 211.298 162.583 217.7C175.839 223.37 186.68 224.588 191.648 225.646C209.884 229.504 216.116 220.305 234.199 212.733C254.194 204.361 272.473 205.724 283.514 199.768C305.137 200.412 321.8 212.179 337.756 214.781C339.321 215.973 340.974 217.014 342.696 217.894C377.772 235.279 374.63 255.825 395.732 263.839C416.834 271.854 443.946 265.452 462.807 265.037C478.367 264.754 491.033 264.048 502.255 265.349C515.039 266.828 527.009 273.492 539.344 279.847C544.883 282.665 549.152 285.615 552.906 284.994C575.9 281.121 578.827 266.494 600.01 241.522C607.849 232.291 615.089 221.233 624.929 211.152C639.413 196.293 665.799 152.617 716.388 121.259C719.017 119.627 721.894 117.996 724.99 116.217C748.153 103.311 785.779 87.937 838.302 88.2109" stroke="url(#paint40_linear_8_619)" stroke-opacity="0.5" stroke-width="1.5" stroke-miterlimit="10"/>
<path d="M12.997 158.634C31.5119 164.725 48.449 171.045 63.4128 175.817C92.7559 185.198 106.418 187.524 124.615 199.029C140.049 208.806 146.542 218.245 160.748 224.566C173.564 230.235 184.011 231.829 189.082 233.083C206.836 237.462 213.478 229.405 231.24 222.387C250.593 214.749 267.863 215.656 279.444 209.211C300.132 209.203 316.604 219.192 333.056 220.458C334.651 221.482 336.324 222.348 338.054 223.048C373.653 236.764 372.496 254.896 392.809 261.932C414.422 269.408 441.446 262.762 460.819 262.527C476.481 262.325 489.41 261.929 500.778 263.718C513.768 265.752 525.899 273.671 537.986 280.597C543.584 283.856 547.837 286.968 551.592 286.331C574.571 282.474 577.073 266.119 597.671 239.534C605.188 229.83 612.267 218.332 622.107 207.778C635.802 193.213 662.86 148.282 714.222 116.141C716.88 114.477 719.777 112.758 722.912 110.985C746.279 97.9325 784.372 82.1021 837.567 82.0334" stroke="url(#paint41_linear_8_619)" stroke-opacity="0.5" stroke-width="1.5" stroke-miterlimit="10"/>
<path d="M13.7909 165.026C31.7798 171.117 48.3956 177.584 63.3742 182.6C91.4316 192.014 105.401 194.977 123.495 206.514C138.535 216.079 145.262 225.273 158.926 231.562C167.872 235.472 177.103 238.512 186.516 240.649C203.788 245.535 210.84 238.619 228.266 232.172C246.977 225.267 263.326 225.636 275.433 218.767C295.185 218.157 311.481 226.336 328.429 226.281C330.049 227.131 331.737 227.813 333.47 228.317C369.388 238.347 370.392 254.016 389.886 260.091C411.908 266.947 438.961 260.594 458.816 260.065C474.594 259.651 487.773 259.891 499.331 262.153C512.482 264.741 524.818 273.867 536.657 281.412C542.299 284.997 546.568 288.387 550.307 287.749C573.257 283.877 575.364 265.826 595.361 237.611C602.557 227.45 609.416 215.414 619.329 204.47C632.221 190.215 659.95 144.012 712.086 111.089C714.758 109.457 717.679 107.646 720.848 105.835C744.406 92.5052 782.966 76.2509 836.818 75.921" stroke="url(#paint42_linear_8_619)" stroke-opacity="0.5" stroke-width="1.5" stroke-miterlimit="10"/>
<path d="M14.5845 171.402C32.1205 177.493 48.3565 184.091 63.3352 189.319C90.1069 198.733 104.369 202.347 122.39 213.901C137.006 223.271 144.01 232.22 157.09 238.476C165.808 242.491 174.787 245.758 183.95 248.249C200.77 253.607 208.202 247.848 225.292 242.005C243.361 235.802 258.658 235.78 271.393 228.373C290.224 227.11 306.329 233.512 323.757 232.12C325.408 232.791 327.11 233.293 328.843 233.618C365.167 240.045 368.302 253.169 386.963 258.315C409.408 264.502 436.461 258.068 456.827 257.669C472.723 257.369 486.15 257.902 497.883 260.654C511.268 263.795 523.708 274.128 535.343 282.293C541 286.269 545.297 289.871 549.023 289.233C571.958 285.344 573.669 265.598 593.037 235.753C599.941 225.12 606.609 212.611 616.537 201.243C628.683 187.314 657.054 139.824 709.979 106.102C712.666 104.389 715.63 102.594 718.843 100.734C742.59 87.1759 781.647 70.4814 836.127 69.8741" stroke="url(#paint43_linear_8_619)" stroke-opacity="0.5" stroke-width="1.5" stroke-miterlimit="10"/>
<path d="M15.3637 177.777C32.3152 183.853 48.3176 190.597 63.2964 196.119C88.7386 205.549 103.351 209.816 121.271 221.386C135.522 230.576 142.759 239.313 155.269 245.488C163.759 249.533 172.478 252.95 181.369 255.717C197.751 261.532 205.564 256.964 222.275 251.691C239.716 246.222 254.004 245.744 267.308 237.831C285.204 235.95 301.118 240.558 319.057 237.812C320.736 238.311 322.453 238.632 324.186 238.772C360.917 241.628 366.14 252.094 383.996 256.375C406.864 261.878 433.918 255.378 454.795 255.142C470.793 254.941 484.483 255.767 496.392 259.007C509.982 262.703 522.554 274.242 533.97 283.026C539.656 287.41 543.969 291.175 547.694 290.57C570.6 286.681 571.959 265.224 590.683 233.749C597.28 222.659 603.817 209.694 613.7 197.87C625.145 184.284 654.1 135.57 707.813 100.984C710.515 99.2387 713.508 97.4115 716.765 95.5189C740.687 81.7324 780.182 64.5814 835.363 63.7619" stroke="url(#paint44_linear_8_619)" stroke-opacity="0.5" stroke-width="1.5" stroke-miterlimit="10"/>
<path d="M16.1576 184.153C32.5832 190.244 48.308 197.086 63.2578 202.902C87.4873 212.3 102.32 217.268 120.151 228.837C134.022 237.832 141.508 246.291 153.434 252.466C161.699 256.604 170.169 260.21 178.804 263.267C194.747 269.538 202.912 266.144 219.345 261.458C236.144 256.691 249.438 255.773 263.312 247.387C280.287 244.87 296.009 247.685 314.445 243.634C316.159 243.889 317.887 244.025 319.617 244.04C356.727 245.869 364.094 251.116 381.117 254.566C404.408 259.286 431.476 252.493 452.836 252.713C468.907 252.887 482.904 253.746 494.989 257.475C508.784 261.725 521.459 274.487 532.685 283.874C538.401 288.666 542.743 292.642 546.453 292.021C569.345 288.132 570.352 264.996 588.403 231.891C594.707 220.328 601.054 206.907 610.966 194.594C621.623 181.35 651.263 131.268 705.677 95.9645C708.412 94.1808 711.426 92.3264 714.717 90.4013C738.814 76.3377 778.79 58.7627 834.628 57.6332" stroke="url(#paint45_linear_8_619)" stroke-opacity="0.5" stroke-width="1.5" stroke-miterlimit="10"/>
<path d="M16.9515 190.512C32.8511 196.587 48.2691 203.543 63.2191 209.636C86.192 218.986 101.288 224.654 119.032 236.256C132.508 245.056 140.242 253.27 151.613 259.413C162.136 265.115 170.611 268.373 176.238 270.817C191.758 277.512 200.274 275.308 216.372 271.242C230.933 267.505 245.263 262.723 259.272 256.927C274.638 250.889 290.675 244.883 309.774 249.424C311.507 249.693 313.268 249.648 314.989 249.292C352.593 245.137 361.99 250.09 378.194 252.741C401.923 256.613 428.977 249.918 450.848 250.269C467.08 250.523 481.281 251.708 493.542 255.91C507.527 260.796 520.32 274.716 531.357 284.706C537.087 289.905 541.473 294.077 545.183 293.44C568.031 289.535 568.716 264.703 586.05 229.968C592.061 217.933 598.262 204.088 608.13 191.302C617.998 178.515 648.367 127.113 703.496 90.8961C706.242 89.1179 709.338 87.2091 712.624 85.235C736.911 70.9433 777.34 52.9281 833.865 51.5211" stroke="url(#paint46_linear_8_619)" stroke-opacity="0.5" stroke-width="1.5" stroke-miterlimit="10"/>
<path d="M17.7451 196.887C33.1187 202.963 48.2446 209.919 63.1948 216.435C84.8966 225.737 100.27 232.122 117.912 243.741C131.067 252.344 138.991 260.314 149.777 266.424C159.847 272.143 168.031 275.711 173.672 278.367C188.783 285.486 197.621 284.455 213.398 281.009C228.897 277.629 239.18 273.32 255.231 266.483C269.691 260.314 285.089 259.118 305.117 255.214C306.958 254.855 308.725 254.887 310.376 254.56C348.445 246.915 359.886 249.031 375.271 250.916C399.423 253.858 426.491 247.359 448.845 247.824C465.194 248.176 479.658 249.671 492.095 254.329C506.284 259.704 519.166 274.895 530.028 285.505C535.773 291.112 540.261 295.48 543.899 294.842C566.717 290.937 567.094 264.394 583.769 227.98C589.503 215.472 595.571 201.236 605.381 187.928C614.621 175.403 645.516 122.778 701.404 85.7786C704.178 83.9678 707.245 82.0265 710.619 80.0035C735.081 65.4835 775.991 47.0281 833.159 45.3437" stroke="url(#paint47_linear_8_619)" stroke-opacity="0.5" stroke-width="1.5" stroke-miterlimit="10"/>
<path d="M18.6119 203.245C33.4595 209.321 48.3078 216.408 63.229 223.136C83.6889 232.373 99.3115 239.427 116.866 251.127C129.567 259.535 137.812 267.26 148.029 273.354C157.631 279.057 165.464 282.918 171.179 285.851C185.896 293.394 195.056 293.537 210.512 290.727C225.354 288.015 234.745 283.626 251.264 276.038C264.862 269.74 279.981 266.783 300.519 261.02C302.345 260.514 304.156 260.301 305.836 259.828C344.399 248.71 357.9 250.955 372.421 249.091C397.158 246.05 422.047 244.821 446.93 245.411C463.395 245.845 478.109 247.65 490.764 252.83C505.159 258.759 518.114 275.172 528.772 286.386C534.518 292.4 539.006 296.947 542.687 296.326C565.491 292.405 565.545 264.166 581.533 226.204C586.989 213.24 592.955 198.613 602.676 184.767C611.215 172.617 642.678 118.638 699.34 80.8729C702.13 79.0295 705.182 77.0556 708.643 75C733.295 60.2192 774.658 41.3235 832.497 39.3943" stroke="url(#paint48_linear_8_619)" stroke-opacity="0.5" stroke-width="1.5" stroke-miterlimit="10"/>
<path d="M19.3317 207.827C33.6533 213.903 48.2241 221.038 63.1746 228.109C82.4072 237.248 98.2495 245.117 115.789 256.768C128.11 264.915 136.604 272.477 146.25 278.522C155.385 284.242 162.883 288.396 168.641 291.557C183.008 299.508 192.447 300.825 207.581 298.651C221.781 296.608 230.325 292.219 247.266 283.669C260.031 277.224 274.93 272.572 295.905 264.901C297.731 264.232 299.542 263.791 301.266 263.155C340.353 248.597 355.853 247.222 369.541 245.358C394.563 241.912 419.775 240.47 444.984 241.042C461.552 241.574 476.528 243.688 489.301 249.357C503.915 255.873 516.93 273.46 527.486 285.211C533.217 291.633 537.72 296.392 541.445 295.755C564.219 291.817 563.995 261.883 579.251 222.275C584.429 208.822 590.336 193.837 599.926 179.453C607.793 167.662 639.811 112.347 697.246 73.799C700.05 71.923 703.19 69.9165 706.637 67.8283C731.464 52.803 773.308 33.4671 831.805 31.2605" stroke="url(#paint49_linear_8_619)" stroke-opacity="0.5" stroke-width="1.5" stroke-miterlimit="10"/>
<path d="M20.0797 210.288C33.8754 216.364 48.1978 223.5 63.0316 230.945C81.0369 239.987 97.1718 248.573 114.507 260.273C126.448 268.274 135.175 275.558 144.252 281.555C152.934 287.29 160.095 291.706 165.912 295.193C179.929 303.552 189.646 306.026 204.445 304.504C218.002 303.113 225.757 298.839 243.063 289.295C255.01 282.769 269.733 276.372 291.071 266.778C292.912 265.962 294.738 265.293 296.476 264.493C336.144 246.463 353.527 241.418 366.455 239.604C391.626 236.089 418.959 233.829 442.818 234.684C459.503 235.281 474.728 237.721 487.691 243.879C502.495 250.917 515.569 269.743 525.994 282.195C531.725 289.04 536.331 293.962 539.997 293.325C562.757 289.404 562.24 257.742 576.779 216.52C581.679 202.595 587.556 187.267 596.97 172.313C604.18 160.898 636.737 104.246 694.947 64.9161C697.78 63.0238 700.934 60.9684 704.425 58.8313C729.441 43.5779 771.739 23.8019 830.907 21.2853" stroke="url(#paint50_linear_8_619)" stroke-opacity="0.5" stroke-width="1.5" stroke-miterlimit="10"/>
<path d="M20.9004 212.636C34.1847 218.696 48.2733 225.831 63.0344 233.684C80.291 242.698 97.1122 252.716 113.429 263.697C124.99 271.518 133.892 278.574 142.472 284.505C150.672 290.29 157.512 294.95 163.388 298.714C177.069 307.497 187.049 311.113 201.513 310.259C214.442 309.505 221.452 305.442 239.064 294.822C250.251 288.085 264.812 280.058 286.456 268.556C288.296 267.577 290.137 266.679 291.904 265.733C332.14 244.23 351.273 234.653 363.574 233.751C389.271 231.916 416.501 227.21 440.871 228.228C457.672 228.89 473.146 231.689 486.285 238.319C501.294 245.911 514.412 266.025 524.706 279.064C530.408 286.317 535.087 291.435 538.754 290.814C561.484 286.86 560.644 253.487 574.495 210.652C579.386 194.606 586.009 179.285 594.218 165.027C600.785 153.954 633.868 95.9827 692.837 55.8701C695.684 53.9452 698.868 51.8571 702.402 49.6874C727.594 34.1896 770.373 13.9734 830.198 11.2284" stroke="url(#paint51_linear_8_619)" stroke-opacity="0.5" stroke-width="1.5" stroke-miterlimit="10"/>
<path d="M21.6921 214.885C52.9996 229.765 83.2861 247.191 112.307 267.022C158.991 298.943 171.757 316.188 198.537 315.9C218.041 315.681 222.637 306.419 281.783 270.22C326.267 242.993 348.509 229.436 360.648 227.801C404.269 222.095 451.951 215.034 484.835 232.646C508.54 245.338 527.241 289.823 537.466 288.058C567.778 282.797 555.773 222.022 591.437 157.61C597.377 146.881 630.97 87.605 690.712 46.7099C713.902 30.838 760.461 4.44169 829.475 1.00851" stroke="url(#paint52_linear_8_619)" stroke-opacity="0.5" stroke-width="1.5" stroke-miterlimit="10"/>
<defs>
<linearGradient id="paint0_linear_8_619" x1="435.765" y1="32.1245" x2="435.835" y2="218.577" gradientUnits="userSpaceOnUse">
<stop offset="0.68" stop-color="#A0A3BD"/>
<stop offset="1" stop-color="#170F49"/>
</linearGradient>
<linearGradient id="paint1_linear_8_619" x1="435.352" y1="38.2209" x2="435.42" y2="219.734" gradientUnits="userSpaceOnUse">
<stop offset="0.68" stop-color="#A0A3BD"/>
<stop offset="1" stop-color="#170F49"/>
</linearGradient>
<linearGradient id="paint2_linear_8_619" x1="434.969" y1="44.3499" x2="435.035" y2="220.889" gradientUnits="userSpaceOnUse">
<stop offset="0.68" stop-color="#A0A3BD"/>
<stop offset="1" stop-color="#170F49"/>
</linearGradient>
<linearGradient id="paint3_linear_8_619" x1="434.512" y1="50.3812" x2="434.576" y2="222.068" gradientUnits="userSpaceOnUse">
<stop offset="0.68" stop-color="#A0A3BD"/>
<stop offset="1" stop-color="#170F49"/>
</linearGradient>
<linearGradient id="paint4_linear_8_619" x1="434.092" y1="56.4614" x2="434.154" y2="223.246" gradientUnits="userSpaceOnUse">
<stop offset="0.68" stop-color="#A0A3BD"/>
<stop offset="1" stop-color="#170F49"/>
</linearGradient>
<linearGradient id="paint5_linear_8_619" x1="433.65" y1="62.5416" x2="433.71" y2="224.413" gradientUnits="userSpaceOnUse">
<stop offset="0.68" stop-color="#A0A3BD"/>
<stop offset="1" stop-color="#170F49"/>
</linearGradient>
<linearGradient id="paint6_linear_8_619" x1="433.201" y1="68.6055" x2="433.259" y2="225.591" gradientUnits="userSpaceOnUse">
<stop offset="0.68" stop-color="#A0A3BD"/>
<stop offset="1" stop-color="#170F49"/>
</linearGradient>
<linearGradient id="paint7_linear_8_619" x1="432.824" y1="74.6855" x2="432.881" y2="226.783" gradientUnits="userSpaceOnUse">
<stop offset="0.68" stop-color="#A0A3BD"/>
<stop offset="1" stop-color="#170F49"/>
</linearGradient>
<linearGradient id="paint8_linear_8_619" x1="432.426" y1="80.7494" x2="432.481" y2="227.921" gradientUnits="userSpaceOnUse">
<stop offset="0.68" stop-color="#A0A3BD"/>
<stop offset="1" stop-color="#170F49"/>
</linearGradient>
<linearGradient id="paint9_linear_8_619" x1="432.013" y1="86.8132" x2="432.066" y2="229.132" gradientUnits="userSpaceOnUse">
<stop offset="0.68" stop-color="#A0A3BD"/>
<stop offset="1" stop-color="#170F49"/>
</linearGradient>
<linearGradient id="paint10_linear_8_619" x1="431.549" y1="92.8607" x2="431.6" y2="230.305" gradientUnits="userSpaceOnUse">
<stop offset="0.68" stop-color="#A0A3BD"/>
<stop offset="1" stop-color="#170F49"/>
</linearGradient>
<linearGradient id="paint11_linear_8_619" x1="431.187" y1="98.9246" x2="431.237" y2="231.515" gradientUnits="userSpaceOnUse">
<stop offset="0.68" stop-color="#A0A3BD"/>
<stop offset="1" stop-color="#170F49"/>
</linearGradient>
<linearGradient id="paint12_linear_8_619" x1="430.745" y1="104.972" x2="430.793" y2="232.697" gradientUnits="userSpaceOnUse">
<stop offset="0.68" stop-color="#A0A3BD"/>
<stop offset="1" stop-color="#170F49"/>
</linearGradient>
<linearGradient id="paint13_linear_8_619" x1="430.33" y1="107.531" x2="430.379" y2="237.307" gradientUnits="userSpaceOnUse">
<stop offset="0.68" stop-color="#A0A3BD"/>
<stop offset="1" stop-color="#170F49"/>
</linearGradient>
<linearGradient id="paint14_linear_8_619" x1="429.856" y1="108.559" x2="429.906" y2="243.396" gradientUnits="userSpaceOnUse">
<stop offset="0.68" stop-color="#A0A3BD"/>
<stop offset="1" stop-color="#170F49"/>
</linearGradient>
<linearGradient id="paint15_linear_8_619" x1="429.491" y1="109.553" x2="429.543" y2="250.078" gradientUnits="userSpaceOnUse">
<stop offset="0.68" stop-color="#A0A3BD"/>
<stop offset="1" stop-color="#170F49"/>
</linearGradient>
<linearGradient id="paint16_linear_8_619" x1="429.067" y1="109.879" x2="429.122" y2="256.769" gradientUnits="userSpaceOnUse">
<stop offset="0.68" stop-color="#A0A3BD"/>
<stop offset="1" stop-color="#170F49"/>
</linearGradient>
<linearGradient id="paint17_linear_8_619" x1="428.62" y1="108.95" x2="428.678" y2="264.952" gradientUnits="userSpaceOnUse">
<stop offset="0.68" stop-color="#A0A3BD"/>
<stop offset="1" stop-color="#170F49"/>
</linearGradient>
<linearGradient id="paint18_linear_8_619" x1="428.239" y1="108.021" x2="428.301" y2="273.118" gradientUnits="userSpaceOnUse">
<stop offset="0.68" stop-color="#A0A3BD"/>
<stop offset="1" stop-color="#170F49"/>
</linearGradient>
<linearGradient id="paint19_linear_8_619" x1="427.793" y1="107.092" x2="427.858" y2="281.372" gradientUnits="userSpaceOnUse">
<stop offset="0.68" stop-color="#A0A3BD"/>
<stop offset="1" stop-color="#170F49"/>
</linearGradient>
<linearGradient id="paint20_linear_8_619" x1="427.346" y1="106.163" x2="427.414" y2="289.464" gradientUnits="userSpaceOnUse">
<stop offset="0.68" stop-color="#A0A3BD"/>
<stop offset="1" stop-color="#170F49"/>
</linearGradient>
<linearGradient id="paint21_linear_8_619" x1="426.958" y1="105.234" x2="427.03" y2="297.574" gradientUnits="userSpaceOnUse">
<stop offset="0.68" stop-color="#A0A3BD"/>
<stop offset="1" stop-color="#170F49"/>
</linearGradient>
<linearGradient id="paint22_linear_8_619" x1="426.533" y1="104.305" x2="426.608" y2="305.799" gradientUnits="userSpaceOnUse">
<stop offset="0.68" stop-color="#A0A3BD"/>
<stop offset="1" stop-color="#170F49"/>
</linearGradient>
<linearGradient id="paint23_linear_8_619" x1="426.152" y1="103.376" x2="426.231" y2="313.912" gradientUnits="userSpaceOnUse">
<stop offset="0.68" stop-color="#A0A3BD"/>
<stop offset="1" stop-color="#170F49"/>
</linearGradient>
<linearGradient id="paint24_linear_8_619" x1="425.713" y1="102.447" x2="425.795" y2="322.165" gradientUnits="userSpaceOnUse">
<stop offset="0.68" stop-color="#A0A3BD"/>
<stop offset="1" stop-color="#170F49"/>
</linearGradient>
<linearGradient id="paint25_linear_8_619" x1="425.288" y1="101.519" x2="425.374" y2="330.348" gradientUnits="userSpaceOnUse">
<stop offset="0.68" stop-color="#A0A3BD"/>
<stop offset="1" stop-color="#170F49"/>
</linearGradient>
<linearGradient id="paint26_linear_8_619" x1="424.842" y1="100.59" x2="424.93" y2="338.53" gradientUnits="userSpaceOnUse">
<stop offset="0.68" stop-color="#A0A3BD"/>
<stop offset="1" stop-color="#170F49"/>
</linearGradient>
<linearGradient id="paint27_linear_8_619" x1="424.894" y1="102.627" x2="424.98" y2="331.792" gradientUnits="userSpaceOnUse">
<stop offset="0.68" stop-color="#A0A3BD"/>
<stop offset="1" stop-color="#170F49"/>
</linearGradient>
<linearGradient id="paint28_linear_8_619" x1="424.903" y1="104.665" x2="424.985" y2="325.051" gradientUnits="userSpaceOnUse">
<stop offset="0.68" stop-color="#A0A3BD"/>
<stop offset="1" stop-color="#170F49"/>
</linearGradient>
<linearGradient id="paint29_linear_8_619" x1="424.876" y1="106.702" x2="424.955" y2="318.351" gradientUnits="userSpaceOnUse">
<stop offset="0.68" stop-color="#A0A3BD"/>
<stop offset="1" stop-color="#170F49"/>
</linearGradient>
<linearGradient id="paint30_linear_8_619" x1="424.972" y1="108.724" x2="425.048" y2="311.597" gradientUnits="userSpaceOnUse">
<stop offset="0.68" stop-color="#A0A3BD"/>
<stop offset="1" stop-color="#170F49"/>
</linearGradient>
<linearGradient id="paint31_linear_8_619" x1="425.018" y1="110.761" x2="425.09" y2="304.847" gradientUnits="userSpaceOnUse">
<stop offset="0.68" stop-color="#A0A3BD"/>
<stop offset="1" stop-color="#170F49"/>
</linearGradient>
<linearGradient id="paint32_linear_8_619" x1="425.041" y1="112.815" x2="425.11" y2="298.185" gradientUnits="userSpaceOnUse">
<stop offset="0.68" stop-color="#A0A3BD"/>
<stop offset="1" stop-color="#170F49"/>
</linearGradient>
<linearGradient id="paint33_linear_8_619" x1="425.05" y1="114.804" x2="425.116" y2="291.401" gradientUnits="userSpaceOnUse">
<stop offset="0.68" stop-color="#A0A3BD"/>
<stop offset="1" stop-color="#170F49"/>
</linearGradient>
<linearGradient id="paint34_linear_8_619" x1="425.146" y1="116.809" x2="425.209" y2="284.67" gradientUnits="userSpaceOnUse">
<stop offset="0.68" stop-color="#A0A3BD"/>
<stop offset="1" stop-color="#170F49"/>
</linearGradient>
<linearGradient id="paint35_linear_8_619" x1="425.17" y1="118.037" x2="425.23" y2="278.798" gradientUnits="userSpaceOnUse">
<stop offset="0.68" stop-color="#A0A3BD"/>
<stop offset="1" stop-color="#170F49"/>
</linearGradient>
<linearGradient id="paint36_linear_8_619" x1="425.137" y1="112.722" x2="425.199" y2="279.361" gradientUnits="userSpaceOnUse">
<stop offset="0.68" stop-color="#A0A3BD"/>
<stop offset="1" stop-color="#170F49"/>
</linearGradient>
<linearGradient id="paint37_linear_8_619" x1="425.148" y1="106.509" x2="425.213" y2="280.794" gradientUnits="userSpaceOnUse">
<stop offset="0.68" stop-color="#A0A3BD"/>
<stop offset="1" stop-color="#170F49"/>
</linearGradient>
<linearGradient id="paint38_linear_8_619" x1="425.239" y1="100.383" x2="425.307" y2="282.286" gradientUnits="userSpaceOnUse">
<stop offset="0.68" stop-color="#A0A3BD"/>
<stop offset="1" stop-color="#170F49"/>
</linearGradient>
<linearGradient id="paint39_linear_8_619" x1="425.228" y1="94.58" x2="425.299" y2="283.733" gradientUnits="userSpaceOnUse">
<stop offset="0.68" stop-color="#A0A3BD"/>
<stop offset="1" stop-color="#170F49"/>
</linearGradient>
<linearGradient id="paint40_linear_8_619" x1="425.232" y1="88.3609" x2="425.305" y2="285.125" gradientUnits="userSpaceOnUse">
<stop offset="0.68" stop-color="#A0A3BD"/>
<stop offset="1" stop-color="#170F49"/>
</linearGradient>
<linearGradient id="paint41_linear_8_619" x1="425.257" y1="82.1873" x2="425.333" y2="286.461" gradientUnits="userSpaceOnUse">
<stop offset="0.68" stop-color="#A0A3BD"/>
<stop offset="1" stop-color="#170F49"/>
</linearGradient>
<linearGradient id="paint42_linear_8_619" x1="425.275" y1="76.0747" x2="425.355" y2="287.873" gradientUnits="userSpaceOnUse">
<stop offset="0.68" stop-color="#A0A3BD"/>
<stop offset="1" stop-color="#170F49"/>
</linearGradient>
<linearGradient id="paint43_linear_8_619" x1="425.323" y1="70.0274" x2="425.405" y2="289.353" gradientUnits="userSpaceOnUse">
<stop offset="0.68" stop-color="#A0A3BD"/>
<stop offset="1" stop-color="#170F49"/>
</linearGradient>
<linearGradient id="paint44_linear_8_619" x1="425.326" y1="63.9149" x2="425.411" y2="290.68" gradientUnits="userSpaceOnUse">
<stop offset="0.68" stop-color="#A0A3BD"/>
<stop offset="1" stop-color="#170F49"/>
</linearGradient>
<linearGradient id="paint45_linear_8_619" x1="425.352" y1="57.786" x2="425.439" y2="292.13" gradientUnits="userSpaceOnUse">
<stop offset="0.68" stop-color="#A0A3BD"/>
<stop offset="1" stop-color="#170F49"/>
</linearGradient>
<linearGradient id="paint46_linear_8_619" x1="425.363" y1="51.6736" x2="425.453" y2="293.549" gradientUnits="userSpaceOnUse">
<stop offset="0.68" stop-color="#A0A3BD"/>
<stop offset="1" stop-color="#170F49"/>
</linearGradient>
<linearGradient id="paint47_linear_8_619" x1="425.403" y1="45.4959" x2="425.496" y2="294.948" gradientUnits="userSpaceOnUse">
<stop offset="0.68" stop-color="#A0A3BD"/>
<stop offset="1" stop-color="#170F49"/>
</linearGradient>
<linearGradient id="paint48_linear_8_619" x1="425.501" y1="39.5462" x2="425.597" y2="296.426" gradientUnits="userSpaceOnUse">
<stop offset="0.68" stop-color="#A0A3BD"/>
<stop offset="1" stop-color="#170F49"/>
</linearGradient>
<linearGradient id="paint49_linear_8_619" x1="425.511" y1="31.4122" x2="425.611" y2="299.502" gradientUnits="userSpaceOnUse">
<stop offset="0.68" stop-color="#A0A3BD"/>
<stop offset="1" stop-color="#170F49"/>
</linearGradient>
<linearGradient id="paint50_linear_8_619" x1="425.432" y1="21.4367" x2="425.538" y2="304.841" gradientUnits="userSpaceOnUse">
<stop offset="0.68" stop-color="#A0A3BD"/>
<stop offset="1" stop-color="#170F49"/>
</linearGradient>
<linearGradient id="paint51_linear_8_619" x1="425.484" y1="11.3795" x2="425.595" y2="310.296" gradientUnits="userSpaceOnUse">
<stop offset="0.68" stop-color="#A0A3BD"/>
<stop offset="1" stop-color="#170F49"/>
</linearGradient>
<linearGradient id="paint52_linear_8_619" x1="425.514" y1="1.15928" x2="425.632" y2="315.819" gradientUnits="userSpaceOnUse">
<stop offset="0.68" stop-color="#A0A3BD"/>
<stop offset="1" stop-color="#170F49"/>
</linearGradient>
</defs>
</svg>
